<svg xmlns="http://www.w3.org/2000/svg" viewBox="0 0 198.75 233.83"><defs><style>.cls-1{fill:#2198d5;}.cls-2{fill:#fff;}</style></defs><title>Recurso 30</title><g id="Capa_2" data-name="Capa 2"><g id="Capa_1-2" data-name="Capa 1"><path class="cls-1" d="M169.77,233.83H29a29,29,0,0,1-29-29V29A29,29,0,0,1,29,0H169.77a29,29,0,0,1,29,29V204.86a29,29,0,0,1-29,29"/><path class="cls-2" d="M78.21,74.76,69.3,81.1l-5.6-8.5,16-10.4H90.77v47.12H78.21Z"/><path class="cls-2" d="M102,62.2h30.72v8.51H112.77v7.83c1.76-.14,2.91-.27,3.72-.27,9.58,0,18,4.18,18,14.58,0,13.16-10.19,17.28-20.72,17.28a51.71,51.71,0,0,1-12.63-1.69l.2-10.19a25.9,25.9,0,0,0,11.48,2.57c4.59,0,9.52-1.56,9.52-7.56,0-5.27-5.47-6.89-10.46-6.89a40.51,40.51,0,0,0-10.27,1.15Z"/><path class="cls-2" d="M45.3,159.21a27.64,27.64,0,0,0,13,3.1c4,0,7.77-.81,7.77-4.59,0-8.78-22.28-3.24-22.28-20.39,0-11.34,11.07-14.44,20.52-14.44a39.85,39.85,0,0,1,12.15,1.75l-.81,9.72a25.33,25.33,0,0,0-10.46-2.16c-3.18,0-8.44.27-8.44,4.39,0,7.63,22.28,2.5,22.28,19.51,0,12.22-10.26,15.53-20.73,15.53a49.41,49.41,0,0,1-14-2Z"/><path class="cls-2" d="M82,123.7h33.22v8.91H94.58v9.72h19.51v8.91H94.58v10.67H116v8.91H82Z"/><path class="cls-2" d="M118.88,123.7h15c14.38,0,21.13,4.86,21.13,15.46,0,9.51-7,15.18-18.7,15.18h-4.86v16.48H118.88Zm12.56,21.73h3.24c4.32,0,7.76-1.55,7.76-6.48s-3.44-6.34-7.76-6.34h-3.24Z"/></g></g></svg>