<svg xmlns="http://www.w3.org/2000/svg" viewBox="0 0 198.75 233.83"><defs><style>.cls-1{fill:#fff;}.cls-2{fill:#1d4d9c;}</style></defs><title>Recurso 33</title><g id="Capa_2" data-name="Capa 2"><g id="Capa_1-2" data-name="Capa 1"><path class="cls-1" d="M169.77,233.83H29a29,29,0,0,1-29-29V29A29,29,0,0,1,29,0H169.77a29,29,0,0,1,29,29V204.86a29,29,0,0,1-29,29"/><path class="cls-2" d="M44.39,76.21l-13.1,9.33L23.05,73,46.57,57.75H62.85V127H44.39Z"/><path class="cls-2" d="M72.68,111.44c3,2,7.84,3.67,14.59,3.67,12.3,0,16.07-8.13,16.17-20.34h-.2c-3.27,4.66-8,7-15,7-12.71,0-20.74-9.42-20.74-21.83,0-12.8,10.71-23.42,26-23.42,19.75,0,26.59,15.48,26.59,32.85,0,21.24-7.64,38.8-30.56,38.8a47.33,47.33,0,0,1-18-3.17Zm20.94-43c-5.76,0-8.84,4.46-8.84,9.82,0,5.76,2.39,11,8.84,11,6,0,9-4.86,9-10.22C102.65,73.43,99.57,68.47,93.62,68.47Z"/><path class="cls-2" d="M135.2,91.29c-6.45-2.18-11.91-7.93-11.91-14.78,0-14.79,12.31-20,26-20s23.82,5.56,23.82,17.76c0,8.54-5.36,13.6-11.41,15.88v.2c7.54,2.38,14,6.65,14,17.07,0,14.89-12.7,20.74-27.19,20.74-14.89,0-27-5.55-27-19.75,0-10.12,6.26-14.88,13.7-17.07Zm13.1,24.42c5.26,0,9.53-3.28,9.53-8.93,0-6.16-5.76-8.64-10.42-10-4.47,2.09-8,5-8,10.32A8.71,8.71,0,0,0,148.3,115.71Zm.3-30c4.86-2.78,7.84-5.26,7.84-9.93,0-5-4.27-7.34-8.34-7.34A8,8,0,0,0,140,76.61C140,81.87,144.33,83.85,148.6,85.74Z"/><path class="cls-2" d="M62.27,143.18h4.46L72,156.81H68l-1-2.91H61.86l-1.07,2.91H57.1ZM64.5,146h0l-1.76,5.33h3.42Z"/><path class="cls-2" d="M72.29,143.18h4.63l4.61,9.25h0l-.06-9.25h3.32v13.63H80.32l-4.77-9.32h0l.12,9.32H72.29Zm10.12-3.54c-.18,1.48-.92,2.75-2.52,2.75-1,0-2.13-.7-2.78-.7a.84.84,0,0,0-1,.76H74.75c.16-1.36.92-2.75,2.48-2.75,1,0,2.09.7,2.79.7a.88.88,0,0,0,1-.76Z"/><path class="cls-2" d="M92.58,142.94c4.49,0,6.83,2.68,6.83,7.05s-2.38,7-6.83,7-6.84-2.71-6.84-7S88.09,142.94,92.58,142.94Zm0,11.41c2.2,0,3.08-2.11,3.08-4.36s-.88-4.35-3.08-4.35-3.09,2-3.09,4.35S90.37,154.35,92.58,154.35Z"/><path class="cls-2" d="M100.31,153.45a8,8,0,0,0,3.75.9c1.15,0,2.24-.24,2.24-1.33,0-2.54-6.44-.94-6.44-5.9,0-3.28,3.2-4.18,5.94-4.18a11.61,11.61,0,0,1,3.51.51l-.23,2.81a7.31,7.31,0,0,0-3-.62c-.92,0-2.44.07-2.44,1.27,0,2.2,6.44.72,6.44,5.64,0,3.54-3,4.49-6,4.49a14.28,14.28,0,0,1-4.06-.58Z"/><path class="cls-2" d="M115.83,143.18h5c4.75,0,8.07,1.48,8.07,6.75,0,5.1-3.42,6.88-8.07,6.88h-5Zm3.63,10.93h1.41c2.71,0,4.24-1.4,4.24-4.12s-1.58-4.12-4.24-4.12h-1.41Z"/><path class="cls-2" d="M129.75,143.18h9.61v2.57h-6v2.82H139v2.57h-5.65v3.09h6.2v2.58h-9.83Z"/><path class="cls-2" d="M24.74,163.4h3.63V177H24.74Z"/><path class="cls-2" d="M30,163.4H34.6l4.61,9.26h0l-.06-9.26h3.32V177H38l-4.77-9.31h0l.12,9.31H30Z"/><path class="cls-2" d="M43.93,163.4h5c4.75,0,8.07,1.49,8.07,6.76,0,5.1-3.42,6.87-8.07,6.87h-5Zm3.63,10.94H49c2.71,0,4.24-1.41,4.24-4.12S51.62,166.1,49,166.1H47.56Z"/><path class="cls-2" d="M57.85,163.4h9.61V166h-6v2.81h5.65v2.58H61.48v3.09h6.19V177H57.85Z"/><path class="cls-2" d="M68.51,163.4h4.34c4.16,0,6.11,1.41,6.11,4.47,0,2.76-2,4.4-5.41,4.4H72.14V177H68.51Zm3.63,6.29h.94c1.25,0,2.25-.45,2.25-1.87s-1-1.84-2.25-1.84h-.94Z"/><path class="cls-2" d="M79.37,163.4H89V166H83v2.81h5.64v2.58H83v3.09h6.19V177H79.37Z"/><path class="cls-2" d="M90.28,163.4h4.63l4.61,9.26h0l-.06-9.26h3.32V177H98.31l-4.77-9.31h0l.12,9.31H90.28Z"/><path class="cls-2" d="M104.24,163.4h5c4.75,0,8.07,1.49,8.07,6.76,0,5.1-3.42,6.87-8.07,6.87h-5Zm3.64,10.94h1.4c2.72,0,4.24-1.41,4.24-4.12s-1.58-4.12-4.24-4.12h-1.4Z"/><path class="cls-2" d="M118.16,163.4h9.61V166h-6v2.81h5.64v2.58H121.8v3.09H128V177h-9.83Z"/><path class="cls-2" d="M129.08,163.4h4.63l4.61,9.26h0l-.06-9.26h3.32V177h-4.51l-4.77-9.31h0l.12,9.31h-3.34Z"/><path class="cls-2" d="M154.41,176.72a14.9,14.9,0,0,1-4,.55c-3.63,0-7.83-1.84-7.83-7,0-4.75,3.32-7.11,7.81-7.11a14.22,14.22,0,0,1,4,.7l-.3,2.95a7.18,7.18,0,0,0-3.55-1,4.15,4.15,0,0,0-4.26,4.42c0,2.67,1.9,4.29,4.55,4.29a9.63,9.63,0,0,0,3.4-.7Z"/><path class="cls-2" d="M155.07,163.4h3.63V177h-3.63Z"/><path class="cls-2" d="M164.3,163.4h4.46L174,177h-4l-1-2.91h-5.12L162.82,177h-3.69Zm2.23,2.81h0l-1.76,5.34h3.42Z"/></g></g></svg>