<svg xmlns="http://www.w3.org/2000/svg" viewBox="0 0 198.75 233.83"><defs><style>.cls-1{fill:#1d4d9c;}.cls-2{fill:#fff;}</style></defs><title>Recurso 31</title><g id="Capa_2" data-name="Capa 2"><g id="Capa_1-2" data-name="Capa 1"><path class="cls-1" d="M169.77,233.83H29a29,29,0,0,1-29-29V29A29,29,0,0,1,29,0H169.77a29,29,0,0,1,29,29V204.86a29,29,0,0,1-29,29"/><path class="cls-2" d="M33.82,101.66a13.49,13.49,0,0,1-3.57.48c-3.21,0-6.92-1.62-6.92-6.18,0-4.19,2.93-6.28,6.9-6.28a12.75,12.75,0,0,1,3.58.62l-.26,2.61a6.34,6.34,0,0,0-3.14-.85,3.85,3.85,0,1,0,.26,7.7,8.58,8.58,0,0,0,3-.62Z"/><path class="cls-2" d="M35.2,89.89h8.49v2.28H38.41v2.48h5v2.28h-5v2.73h5.47v2.28H35.2Z"/><path class="cls-2" d="M45.88,89.89H50L54,98.07h0l0-8.18H57v12H53L48.76,93.7h0l.1,8.24H45.88Z"/><path class="cls-2" d="M61.33,92.27h-3V89.89H67.5v2.38h-3v9.67H61.33Z"/><path class="cls-2" d="M68.76,89.89h5.73c2.14,0,3.89,1,3.89,3a2.81,2.81,0,0,1-2.32,3v0c1,.27,1.11,1.19,1.71,2.66L79,101.94H75.6l-.69-2.18c-.66-2.07-1.07-2.59-2.26-2.59H72v4.77H68.76Zm3.21,5h.85c1,0,2.35,0,2.35-1.39,0-1.13-1.13-1.33-2.35-1.33H72Z"/><path class="cls-2" d="M86,89.68c4,0,6,2.37,6,6.23s-2.11,6.23-6,6.23-6-2.4-6-6.23S82,89.68,86,89.68Zm0,10.08c2,0,2.73-1.86,2.73-3.85S87.9,92.06,86,92.06s-2.73,1.76-2.73,3.85S84,99.76,86,99.76Z"/><path class="cls-2" d="M97.37,89.89h3.94l4.64,12h-3.52l-.9-2.58H97l-1,2.58H92.8Zm2,2.48h0l-1.56,4.72h3Z"/><path class="cls-2" d="M107.12,89.89h5.06l2.55,8h0l2.67-8h4.87v12h-3.14l0-9.25h0l-3.07,9.25h-3l-2.93-9.25h0l.07,9.25h-3.14Z"/><path class="cls-2" d="M124.38,89.89h8.49v2.28h-5.28v2.48h5v2.28h-5v2.73h5.47v2.28h-8.68Zm4-3.12h3.23l-2.23,2.48h-2.17Z"/><path class="cls-2" d="M134.92,89.89h5.73c2.14,0,3.88,1,3.88,3a2.81,2.81,0,0,1-2.31,3v0c1,.27,1.1,1.19,1.71,2.66l1.17,3.28h-3.35l-.69-2.18c-.65-2.07-1.07-2.59-2.26-2.59h-.67v4.77h-3.21Zm3.21,5H139c1,0,2.35,0,2.35-1.39,0-1.13-1.12-1.33-2.35-1.33h-.84Z"/><path class="cls-2" d="M146.67,89.89h3.21v12h-3.21Z"/><path class="cls-2" d="M162.32,101.66a13.49,13.49,0,0,1-3.57.48c-3.21,0-6.92-1.62-6.92-6.18,0-4.19,2.93-6.28,6.9-6.28a12.62,12.62,0,0,1,3.57.62l-.25,2.61a6.34,6.34,0,0,0-3.14-.85,3.85,3.85,0,1,0,.25,7.7,8.59,8.59,0,0,0,3-.62Z"/><path class="cls-2" d="M167.38,89.89h3.93l4.64,12h-3.52l-.89-2.58H167l-.95,2.58H162.8Zm2,2.48h0l-1.55,4.72h3Z"/><path class="cls-2" d="M55.16,132.89c0,9.77-6.34,14.17-15.66,14.17s-15.66-4.4-15.66-14.17V110.73h9.52V131.3c0,4.71,1.28,8.7,6.14,8.7s6.14-4,6.14-8.7V110.73h9.52Z"/><path class="cls-2" d="M57.36,110.73H69.49L81.57,135h.1l-.15-24.25h8.7v35.72H78.39L65.91,122H65.8l.31,24.41H57.36Z"/><path class="cls-2" d="M93.39,110.73h9.52v35.72H93.39Z"/><path class="cls-2" d="M105.92,110.73h13c12.44,0,21.14,3.89,21.14,17.7,0,13.36-9,18-21.14,18h-13Zm9.52,28.66h3.69c7.11,0,11.1-3.69,11.1-10.8s-4.14-10.8-11.1-10.8h-3.69Z"/><path class="cls-2" d="M152.29,110.73H164l13.76,35.72H167.28l-2.66-7.63H151.21l-2.81,7.63h-9.68Zm5.83,7.37H158l-4.61,14h9Z"/></g></g></svg>