<svg xmlns="http://www.w3.org/2000/svg" viewBox="0 0 198.75 233.83"><defs><style>.cls-1{fill:#fff;}.cls-2{fill:#1d4d9c;}</style></defs><title>Recurso 36</title><g id="Capa_2" data-name="Capa 2"><g id="Capa_1-2" data-name="Capa 1"><path class="cls-1" d="M169.77,233.83H29a29,29,0,0,1-29-29V29A29,29,0,0,1,29,0H169.77a29,29,0,0,1,29,29V204.86a29,29,0,0,1-29,29"/><path class="cls-2" d="M31.66,75.43h5l1,17.27h-7Zm5.66-2.81H31V66.56h6.29Z"/><path class="cls-2" d="M42.49,59.92H60v5H49.46V70.6H59.53v5H49.46V86.07h-7Z"/><path class="cls-2" d="M61.07,59.92H79.5v5H68v5.39H78.86v4.95H68v5.92H79.91v4.94H61.07Z"/><path class="cls-2" d="M81.9,59.92h7v21H99.65v5.17H81.9Z"/><path class="cls-2" d="M100.82,59.92h7V86.07h-7Z"/><path class="cls-2" d="M132.54,85.47a28.75,28.75,0,0,1-7.75,1c-7,0-15-3.52-15-13.41,0-9.1,6.37-13.63,15-13.63a27.18,27.18,0,0,1,7.76,1.34L132,66.48a13.71,13.71,0,0,0-6.82-1.84c-4.95,0-8.17,3.6-8.17,8.47,0,5.13,3.63,8.24,8.73,8.24A18.4,18.4,0,0,0,132.21,80Z"/><path class="cls-2" d="M133.29,59.92h18.43v5H140.26v5.39h10.83v4.95H140.26v5.92h11.87v4.94H133.29Z"/><path class="cls-2" d="M154.2,79.63a15.31,15.31,0,0,0,7.19,1.72c2.21,0,4.31-.45,4.31-2.55,0-4.87-12.37-1.79-12.37-11.31,0-6.29,6.15-8,11.39-8a22.07,22.07,0,0,1,6.74,1L171,65.84a14.05,14.05,0,0,0-5.8-1.2c-1.76,0-4.68.16-4.68,2.44,0,4.23,12.36,1.39,12.36,10.83,0,6.78-5.7,8.61-11.5,8.61a27.33,27.33,0,0,1-7.79-1.12Z"/><path class="cls-2" d="M34.61,101.63H52.1v5H41.57v5.73H51.65v4.94H41.57v10.53h-7Z"/><path class="cls-2" d="M53.71,101.63h7v26.15h-7Z"/><path class="cls-2" d="M63.45,101.63H81.88v5H70.42V112H81.24v4.94H70.42v5.92H82.29v5H63.45Z"/><path class="cls-2" d="M84.35,121.33a15.25,15.25,0,0,0,7.19,1.73c2.21,0,4.31-.45,4.31-2.55,0-4.87-12.36-1.8-12.36-11.31,0-6.3,6.14-8,11.39-8a22.39,22.39,0,0,1,6.74,1l-.45,5.4a13.93,13.93,0,0,0-5.8-1.2c-1.77,0-4.69.15-4.69,2.44,0,4.23,12.36,1.38,12.36,10.82,0,6.78-5.69,8.62-11.5,8.62a27.39,27.39,0,0,1-7.79-1.13Z"/><path class="cls-2" d="M109.41,106.8H103v-5.17h19.85v5.17h-6.44v21h-7Z"/><path class="cls-2" d="M128.52,101.63h8.54l10.08,26.15h-7.65l-1.94-5.58h-9.82l-2.06,5.58h-7.08Zm4.27,5.39h-.08l-3.37,10.23h6.56Z"/><path class="cls-2" d="M147.7,121.33a15.18,15.18,0,0,0,7.19,1.73c2.21,0,4.31-.45,4.31-2.55,0-4.87-12.36-1.8-12.36-11.31,0-6.3,6.14-8,11.38-8a22.46,22.46,0,0,1,6.75,1l-.45,5.4a13.94,13.94,0,0,0-5.81-1.2c-1.76,0-4.68.15-4.68,2.44,0,4.23,12.36,1.38,12.36,10.82,0,6.78-5.69,8.62-11.5,8.62a27.34,27.34,0,0,1-7.79-1.13Z"/><path class="cls-2" d="M23.29,143.34h8.32c8,0,11.72,2.69,11.72,8.57,0,5.29-3.86,8.43-10.37,8.43h-2.7v9.14h-7Zm7,12.06h1.8c2.39,0,4.31-.86,4.31-3.6s-1.92-3.52-4.31-3.52h-1.8Z"/><path class="cls-2" d="M49.33,143.34h8.54l10.07,26.14H60.3l-1.95-5.58H48.54l-2.06,5.58H39.4Zm4.27,5.39h-.08L50.15,159h6.56Z"/><path class="cls-2" d="M70.38,148.5H63.94v-5.16H83.79v5.16H77.35v21h-7Z"/><path class="cls-2" d="M84.28,143.34H96.71c4.65,0,8.43,2.09,8.43,6.59,0,3.48-1.65,5.8-5,6.59v.08c2.25.6,2.4,2.58,3.71,5.77l2.55,7.11H99.11l-1.5-4.72c-1.42-4.49-2.32-5.62-4.91-5.62H91.24v10.34h-7Zm7,10.86h1.84c2.25,0,5.09-.08,5.09-3,0-2.44-2.43-2.89-5.09-2.89H91.24Z"/><path class="cls-2" d="M107.54,143.34h7v26.14h-7Z"/><path class="cls-2" d="M125.26,143.34h8.54l10.08,26.14h-7.65l-1.94-5.58h-9.82l-2.06,5.58h-7.08Zm4.27,5.39h-.08L126.08,159h6.56Z"/><path class="cls-2" d="M144.44,163a15.34,15.34,0,0,0,7.19,1.72c2.21,0,4.31-.45,4.31-2.54,0-4.87-12.36-1.8-12.36-11.32,0-6.29,6.14-8,11.38-8a22.14,22.14,0,0,1,6.75,1l-.45,5.39a14.09,14.09,0,0,0-5.81-1.19c-1.76,0-4.68.15-4.68,2.43,0,4.23,12.36,1.39,12.36,10.83,0,6.78-5.69,8.61-11.5,8.61a27.38,27.38,0,0,1-7.79-1.12Z"/><path class="cls-2" d="M173.39,160.6h-5l-1-17.26h7Zm-5.65,2.81H174v6.07h-6.29Z"/></g></g></svg>