<svg xmlns="http://www.w3.org/2000/svg" xmlns:xlink="http://www.w3.org/1999/xlink" viewBox="0 0 200.92 233.83"><defs><style>.cls-1{fill:none;}.cls-2{fill:#fff;}.cls-3{clip-path:url(#clip-path);}.cls-4{fill:url(#Degradado_sin_nombre_106);}.cls-5{clip-path:url(#clip-path-2);}.cls-6{fill:url(#Degradado_sin_nombre_107);}.cls-7{clip-path:url(#clip-path-3);}.cls-8{fill:url(#Degradado_sin_nombre_108);}.cls-9{clip-path:url(#clip-path-4);}.cls-10{fill:url(#Degradado_sin_nombre_109);}.cls-11{clip-path:url(#clip-path-5);}.cls-12{fill:url(#Degradado_sin_nombre_110);}.cls-13{clip-path:url(#clip-path-6);}.cls-14{fill:url(#Degradado_sin_nombre_111);}</style><clipPath id="clip-path"><path class="cls-1" d="M43.91,119.47c-12.9,8.52-20,19.75-21.83,28.3,26.7-20.74,87.1-17.36,130.55-.14,0,0-46-34.49-84.31-34.45-8.77,0-17.1,1.84-24.41,6.29"/></clipPath><linearGradient id="Degradado_sin_nombre_106" x1="3252.54" y1="980.75" x2="3263.54" y2="980.75" gradientTransform="translate(-15964.62 -4713.05) scale(4.94)" gradientUnits="userSpaceOnUse"><stop offset="0" stop-color="#fcca35"/><stop offset="0.58" stop-color="#fcca35"/><stop offset="0.68" stop-color="#fcd463"/><stop offset="0.83" stop-color="#fde1a3"/><stop offset="0.94" stop-color="#fdeacb"/><stop offset="1" stop-color="#fdedda"/></linearGradient><clipPath id="clip-path-2"><path class="cls-1" d="M171.27,147.61s8.82-10.36,3.9-23c-3.87-9.9-18-25.36-42.15-30,0,0,35.08,15.12,38.25,53"/></clipPath><linearGradient id="Degradado_sin_nombre_107" x1="3405.65" y1="4345.21" x2="3416.66" y2="4345.21" gradientTransform="translate(6392.82 -4762.83) rotate(90) scale(1.44)" gradientUnits="userSpaceOnUse"><stop offset="0" stop-color="#e84c8b"/><stop offset="0.58" stop-color="#e84c8b"/><stop offset="0.77" stop-color="#ee81ae"/><stop offset="1" stop-color="#f4bfd7"/></linearGradient><clipPath id="clip-path-3"><path class="cls-1" d="M58.25,104.4c31.65-6.92,72.52,15,106.61,43.22,0,0-13.7-47.47-58.67-56.33a33.6,33.6,0,0,0-6.43-.56c-17.72,0-39.41,11.6-41.51,13.67"/></clipPath><linearGradient id="Degradado_sin_nombre_108" x1="3476.96" y1="1573.68" x2="3487.96" y2="1573.68" gradientTransform="matrix(0, 4.58, -4.58, 0, 7318.45, -15799.53)" gradientUnits="userSpaceOnUse"><stop offset="0" stop-color="#ec6f35"/><stop offset="0.53" stop-color="#ec6f35"/><stop offset="0.8" stop-color="#f7a647"/><stop offset="1" stop-color="#ffd255"/></linearGradient><clipPath id="clip-path-4"><path class="cls-1" d="M22.08,147.77c26.47-20.56,86.08-17.4,129.41-.57-7.47-4.37-37.68-19.31-73.56-20l-2.42,0c-39.82,0-53.43,20.6-53.43,20.6"/></clipPath><linearGradient id="Degradado_sin_nombre_109" x1="3243.17" y1="983.94" x2="3254.17" y2="983.94" gradientTransform="translate(-15780.86 -4679.93) scale(4.9)" gradientUnits="userSpaceOnUse"><stop offset="0" stop-color="#ffde4f"/><stop offset="0.58" stop-color="#ffde4f"/><stop offset="0.64" stop-color="#ffe266"/><stop offset="0.81" stop-color="#ffedae"/><stop offset="0.94" stop-color="#fff4dc"/><stop offset="1" stop-color="#fff7ed"/></linearGradient><clipPath id="clip-path-5"><path class="cls-1" d="M58.25,104.4c31.65-6.92,72.52,15,106.61,43.22,0,0-24.3-29-52.27-40.84a78.89,78.89,0,0,0-30.95-6.37c-14.18,0-23.39,4-23.39,4"/></clipPath><linearGradient id="Degradado_sin_nombre_110" x1="3174.82" y1="995.78" x2="3185.82" y2="995.78" gradientTransform="translate(-14455.88 -4447.36) scale(4.59)" gradientUnits="userSpaceOnUse"><stop offset="0" stop-color="#f39758"/><stop offset="0.53" stop-color="#f39758"/><stop offset="0.76" stop-color="#f9c367"/><stop offset="1" stop-color="#ffec75"/></linearGradient><clipPath id="clip-path-6"><path class="cls-1" d="M133,94.64s35.08,15.12,38.25,53l0,0c.43-3.38,1.24-13.59-3-23.71-5.83-13.91-23-25.7-35.18-29.21Z"/></clipPath><linearGradient id="Degradado_sin_nombre_111" x1="811.97" y1="1482.55" x2="822.97" y2="1482.55" gradientTransform="translate(-1049.37 -2078.45) scale(1.48)" gradientUnits="userSpaceOnUse"><stop offset="0" stop-color="#ef85a7"/><stop offset="0.58" stop-color="#ef85a7"/><stop offset="0.9" stop-color="#f7c1d5"/><stop offset="1" stop-color="#f9d4e4"/></linearGradient></defs><title>Recurso 29</title><g id="Capa_2" data-name="Capa 2"><g id="Capa_1-2" data-name="Capa 1"><path class="cls-2" d="M169.77,233.83H29a29,29,0,0,1-29-29V29A29,29,0,0,1,29,0H169.77a29,29,0,0,1,29,29V204.86a29,29,0,0,1-29,29"/><g class="cls-3"><rect class="cls-4" x="22.07" y="113.16" width="130.54" height="34.54" transform="translate(-0.14 0.09) rotate(-0.06)"/></g><g class="cls-5"><rect class="cls-6" x="123.83" y="87.01" width="65.45" height="68.22" transform="translate(-37.22 80.75) rotate(-25.96)"/></g><g class="cls-7"><rect class="cls-8" x="58.9" y="58.95" width="105.3" height="120.48" transform="translate(-48.88 149.4) rotate(-57.56)"/></g><g class="cls-9"><rect class="cls-10" x="22.07" y="127.16" width="129.41" height="20.54" transform="translate(-0.14 0.09) rotate(-0.06)"/></g><g class="cls-11"><rect class="cls-12" x="58.27" y="97.46" width="106.57" height="50.21" transform="translate(-0.13 0.12) rotate(-0.06)"/></g><g class="cls-13"><rect class="cls-14" x="133.05" y="94.62" width="39.49" height="53.01" transform="translate(-0.13 0.16) rotate(-0.06)"/></g></g></g></svg>