<svg xmlns="http://www.w3.org/2000/svg" viewBox="0 0 137.31 37.57"><defs><style>.cls-1{fill:#fff;}</style></defs><title>Recurso 2</title><g id="Capa_2" data-name="Capa 2"><g id="Capa_1-2" data-name="Capa 1"><path class="cls-1" d="M1.37,32.56s0-.12,0-.15v0a5,5,0,0,0,0-.58l0-.7,0,0c.07-1.07,0-2.15,0-3.23,0,0,0-.06-.06-.08v0l.06,0v-.07s0-.09,0-.09,0,0,.12,0,0,0,.1-.07.07,0,.1,0h.39a2.33,2.33,0,0,1,1.45.35s.16.21.22.28l.15.19.09.06a.5.5,0,0,1,0,.12h0c.12.21.21.46.33.66l.53.75c.13.17.14.39.25.55s.17.23.25.31a1.61,1.61,0,0,1,.35.5l.22.5c-.06.08.37.69.43.79a6.77,6.77,0,0,1,.33.66l.28-5.06v-.39c0-.21.13-.09.18-.15s0-.07,0-.07a1.07,1.07,0,0,1,.61-.25h.54c.06.09.2.09.26.12.3.07.4.51.41.82,0,.14-.05.68-.07.81s0,.15,0,.16,0,.08,0,.09v.06c0,.13,0,.29,0,.46v.17a2.16,2.16,0,0,1,0,.46l0,.47a2.56,2.56,0,0,1,.1.88v.07s0,.28,0,.31v0a2.36,2.36,0,0,0,0,.38s0,.16,0,.19,0,0,0,.09a2.46,2.46,0,0,0,.06.53l.12,2.88c0,.14.06.22.06.38,0,.34-.17.45-.46.56-.12,0-.68.1-.79.11H7.41a1.36,1.36,0,0,0-.28-.11c-.12,0-.19-.24-.28-.33l-.22-.19-.75-.91a10.27,10.27,0,0,0-.72-1.09c-.14-.2-.34-.32-.47-.54L3.5,32.19c-.11-.09-.14-.28-.24-.35a1.91,1.91,0,0,0,0,.57,0,0,0,0,0,0,0s0,.11,0,.14v.51a.11.11,0,0,0,0,.09c0,.1.13.16.12.28s0,.07,0,.07-.05-.13-.09-.13h0c.05.09.06.72.09.75a3.59,3.59,0,0,0,0,.73c.16,0,.22.86.2,1h.05l0,.91a.18.18,0,0,0,0,.08V37a.15.15,0,0,0-.06,0,3.41,3.41,0,0,1-1.19.24c-.76,0-.77-.61-.76-1.24v-.12a.94.94,0,0,0,0-.09,1.09,1.09,0,0,1,0-.18h0l0-.45,0,0,0-.91,0,0c0-.38,0-.75,0-1.13a0,0,0,1,1,0,0v-.06s0,0,0,0Zm0-1.34s0,0,0,0A0,0,0,1,1,1.34,31.22Zm0,4a0,0,0,1,1,0,0A0,0,0,0,1,1.37,35.23Zm0,.13a0,0,0,0,1,0,0A0,0,0,0,1,1.37,35.36Zm0,.37s0,0,0-.06S1.35,35.73,1.38,35.73Zm.16-8.24s0,0,0,0S1.54,27.5,1.54,27.49Zm.33,8.78s0-.05,0-.05A0,0,0,0,0,1.87,36.27Zm0-4.45s0-.07,0-.07S1.89,31.82,1.92,31.82ZM2,33.6s0-.07,0-.09S2,33.62,2,33.6Zm0-.78h0v-.05Zm0-.26h0s.05-.14.06-.19v-.08C2,32.29,2.06,32.47,2.06,32.56Zm.07-.34v-.47a.06.06,0,0,0-.05,0v0s.05-.07.05-.07v-.27s-.05,0-.05.05l0,.39h0v.34Zm0-1.54v-.06l0,0Zm0-.31s0-.12,0-.15S2.12,30.4,2.13,30.37Zm0-.66s0-.06,0-.08,0-.07,0-.09Zm.24,3.23c0,.12.08.46.19.53v-.1l0,0a.16.16,0,0,1,0-.06v0s0-.06,0-.09,0-.24.06-.25v-.24c0-.07,0-.14,0-.22v-.11c-.09,0-.09-.16-.09-.24l-.06.12v.07c0,.21-.13.25-.08.47l0,.05Zm0-.84A.57.57,0,0,0,2.5,32h0s0,.05.06.05a7.07,7.07,0,0,0-.06-.94s0,0,0,.06v.22s0,.07,0,.09v0a1.1,1.1,0,0,0,0,.25c0,.07-.06.07-.06.12S2.44,32,2.42,32.1Zm0-.48a0,0,0,0,0,0-.05Zm.06,1.2v.06s0,0,0-.06Zm0,.18s0-.06,0-.06S2.48,33,2.47,33Zm0-1.12h0v0Zm0,.77s0-.08,0-.06S2.5,32.65,2.48,32.65Zm.08-.2s0-.07,0-.07S2.59,32.45,2.56,32.45Zm.72.18v0l0-.07v0S3.28,32.6,3.28,32.63Zm0-.18s0,0,0,0A0,0,0,0,1,3.29,32.45Zm.13-.07s0-.12,0-.1S3.44,32.38,3.42,32.38Zm4.7,4.26s.08,0,.09,0,0-.18,0-.21-.05.24-.1.22S8.1,36.64,8.12,36.64Z"/><path class="cls-1" d="M9.74,35.78a5.59,5.59,0,0,0-.21-.71c0-.25-.1-1.43-.13-1.67,0,0,0-.17,0-.2V31.94a3.38,3.38,0,0,1,0-.62c0-.95-.16-1.92-.19-2.88l0,0c0-.47-.23-1.22.78-1.2h.84a2.56,2.56,0,0,1,.45.09c.3.07.36.32.36.6,0,.51,0,2.67,0,4.63v.63s0,0,0,0v0a3.11,3.11,0,0,1,.12,1c0,.06,0,.14,0,.19h.06a.48.48,0,0,0,.1.35c.25.3.4.25.81.25a1,1,0,0,0,.3,0l.22-.12h0c0,.07-.1.12-.13.19a.1.1,0,0,0,0-.06h0c-.18,0-.22.12-.48.12v.06s.17,0,.2,0,.21-.13.31-.09a1.37,1.37,0,0,0,.23-.25s0,.1,0,.12,0-.09.07-.12a1.16,1.16,0,0,0,.18-.54v-.77h0a.62.62,0,0,1,0,.1s0,.15,0,.17l.07-.09s0-.57,0-.82v-.12a2.72,2.72,0,0,0,0-.28v-.22a1.69,1.69,0,0,1,0-.21h0a1.37,1.37,0,0,0-.06-.44c0-.73,0-1.47,0-2.2s0-1.3-.12-1.94c.06-.11.47-.16.54-.16a1.61,1.61,0,0,1,.38.08,2.86,2.86,0,0,1,.86.17,1.26,1.26,0,0,1,.35.38s.12,0,.12.07v0s0,.17,0,.2v.09c0,.06.09.35.11.41s0,.19-.05.25v1.4c0,.22.05.42.05.61,0,.87-.07,1.72-.05,2.58,0,0-.06.26-.06.3-.05.21,0,.42-.06.62s-.1.21-.1.31a1.83,1.83,0,0,1,0,.47s-.06.09-.06.09c-.24.41-.24.84-.62,1.17-.12.12-.31.15-.45.25l0,.06c-.12.08-.25.08-.37.15H14l-.5.12s0,0-.11,0l-.08,0a7,7,0,0,1-.92.07,3.46,3.46,0,0,1-1.88-.49A2.5,2.5,0,0,1,9.74,35.78Zm.31-8.48h0v0h0Zm1.2,8.23v0s0,0,0-.06h0A.08.08,0,0,0,11.25,35.53Zm.06.13v0a.12.12,0,0,0,0-.09v0A.11.11,0,0,0,11.31,35.66Zm.38-2.24s0-.07,0-.05A0,0,0,0,1,11.69,33.42Zm0,.06v.28s0-.17,0-.2v0S11.69,33.48,11.72,33.48Zm.22,1.24s0,0,0,0S12,34.72,11.94,34.72Zm.24,1.67a.16.16,0,0,0-.16-.16A.18.18,0,0,0,12.18,36.39Zm.09-1.23a.1.1,0,0,0-.11-.1A.1.1,0,0,0,12.27,35.16Zm0,0s.06-.07.06-.1S12.31,35.14,12.31,35.2Zm.37,1,.14-.07v0s-.07,0-.1,0-.07,0-.07.06S12.65,36.2,12.68,36.2Zm.86,0c-.1.1-.55,0-.55.2v0c.07,0,.38-.06.44-.09s.29-.15.29-.28C13.52,36.1,13.57,36.2,13.54,36.25Zm-.5-1s0,0,0,0h0s0,0,0,0Zm.12,1v0S13.13,36.26,13.16,36.25Zm.08-.81s0,0,0,0S13.22,35.45,13.24,35.44Zm0-.68s.07-.1.07-.07S13.29,34.76,13.27,34.76Zm.17,1.46a.06.06,0,0,0,.06-.06h-.1S13.41,36.22,13.44,36.22Zm.19-7.13a0,0,0,0,1,0-.06S13.66,29.09,13.63,29.09Zm0,2.38s0-.06,0-.06S13.71,31.47,13.68,31.47Zm.11,4.64s0,0,0,0S13.78,36.11,13.79,36.11Zm1.87-7.73s0,0,0,0S15.65,28.38,15.66,28.38ZM16,30.43s0-.06,0-.06S16,30.43,16,30.43Z"/><path class="cls-1" d="M16.78,37.32c-.67-.1-.64-.52-.71-1.06,0-.1-.13-.9-.13-1a14.63,14.63,0,0,1-.08-1.88,3.41,3.41,0,0,1,.05-.78c0-.34,0-1.88,0-2.22,0-.1,0-1.23,0-1.32v-.25c0-.09.06-.73.06-.82a1.19,1.19,0,0,1,.07-.5l.08,0c.13-.06.09-.1.28-.13a18.11,18.11,0,0,1,2.08-.22v.05h-.11v0H21a1.94,1.94,0,0,1,.55.14h0s0,0,0,0a2.4,2.4,0,0,1,.47,1.4c0,.1,0,.08-.08.2a.75.75,0,0,1-.56.46c-.07,0-.05,0-.1,0h-.51a10.89,10.89,0,0,1-1.85.16c-.14,0-.24,0-.36,0s-.26,0-.26.18c0,.35.06,1,.06,1.36l1,0c.22,0,1.13,0,1.35,0a1,1,0,0,1,.33.3,1.67,1.67,0,0,1,.38,1.07,4.84,4.84,0,0,1-.15.54l-.15.27a13.26,13.26,0,0,1-2.14.11,2.24,2.24,0,0,0-.56,0s0,0,0,0c0,.36,0,1,.06,1.34a1.52,1.52,0,0,0,.05.25l0,0,.17,0h0s0,0,.07.06a1.89,1.89,0,0,1,.52-.06h0l1.69,0c.51.09.95.37.95.92,0,.17-.1.3-.1.43s0,.18,0,.25c0,.22-.16.28-.3.43s-.07.19-.25.19h-.77c-.09,0-.05-.09-.12-.09-.46,0-1.63.13-2.07.13a.41.41,0,0,1-.19,0l0-.05h-.13Zm1.57,0,0,0h-.07Zm.23-10.17s0-.06,0-.06S18.6,27.15,18.58,27.15Zm.78,4.06h.9l.35.09s.19.09.27.09l0,0c0-.19-.44-.25-.57-.25s-.88,0-1,0S19.36,31.19,19.36,31.21ZM20.3,35h0S20.32,35.07,20.3,35Zm0-3.7a0,0,0,0,0,.05,0A0,0,0,0,0,20.33,31.34ZM21,35h0S21.05,35.07,21,35Zm.75,1.22a.15.15,0,0,0,.1-.06v-.12c0-.19-.06-.17-.16-.28s-.11-.17-.19-.17c0,.2.26.28.26.5h0s0,0,0,0a.94.94,0,0,1,0-.09L21.68,36h0C21.65,36,21.68,36.26,21.79,36.26Z"/><path class="cls-1" d="M22.72,36.39A2.81,2.81,0,0,1,22.3,35a5.22,5.22,0,0,1,0-.56s-.05-.14-.05-.17.09-.08.09-.08,0,0,.05,0h.08c.09,0,.15,0,.21,0a1.33,1.33,0,0,0,.57-.19l.05,0a3,3,0,0,1,.61.09.57.57,0,0,1,.58.7c.06,0,0-.15.07-.18s0,.17,0,.18v0s0,0,0,.06a2.36,2.36,0,0,0,0,.28c.07.09,0,.17.16.19l-.06.06h.13a1,1,0,0,0,.75-.31,1.93,1.93,0,0,0,.08-.47v0h0v-.12c0-.17,0-.34,0-.5,0-.81-1.14-.95-1.68-1.16a3.15,3.15,0,0,1-.73-.44,2.13,2.13,0,0,1-.68-.51l-.41-.62a1.72,1.72,0,0,1-.18-.81,3.07,3.07,0,0,1,.93-2.73c.13-.05.26-.16.39-.22a3,3,0,0,1,1.3-.28l.16,0h.06a5.92,5.92,0,0,1,2.52.56,2.47,2.47,0,0,1,.53,2.3l-.16.11c-.13.07-.12.11-.16.26s-.54.34-.71.34a1.11,1.11,0,0,1-1-1.16c0-.12,0-.24,0-.36v-.08a1,1,0,0,0-1.5-.09c-1.47,1.59,2.12,1.78,3.15,3a6,6,0,0,0,.47.41l.13.19a1.71,1.71,0,0,1,.21,1.15V34c-.05,0-.05,0-.05.07s.05.29.05.46a5,5,0,0,1-.86,1.92c-.11.07-.19,0-.28.12l-.23.22c-.06,0-.21.07-.22.09-.18.09-.09.31-.34.31,0,0,0,0-.07,0s0,.19-.18.16v0c0-.06,0-.06,0-.08v0a1.38,1.38,0,0,1-.78.1H25a.36.36,0,0,0-.18,0l-.22,0a2.47,2.47,0,0,1-1.09-.47v0l.25.25a3.55,3.55,0,0,1,.31.23,0,0,0,0,1,0,0h0l0,0h0l-.47-.22a2.45,2.45,0,0,0-.35-.22c-.17-.12-.28-.62-.45-.62Zm-.48-1.92h0Zm.53,2v0l0,0v0Zm.62-2.07s0-.07,0-.07S23.36,34.38,23.39,34.38Zm.22.13s0,0,0,0S23.59,34.51,23.61,34.51ZM23.72,31c0,.06.05.07.12.07s0,0,0,0,0-.06,0-.06l0,0a.2.2,0,0,0,0-.05l-.11-.19,0,0Zm.09,4.58s0-.06,0-.06S23.78,35.61,23.81,35.61Zm.5,1.77s-.09,0-.1,0v0Zm.15,0,0,0s-.05,0-.05,0Zm.48-4.53H25a.06.06,0,0,0-.06-.06Zm.53-4.33a0,0,0,0,0,0-.05A0,0,0,0,0,25.47,28.52Zm.22,0s0,0,0,0S25.69,28.53,25.69,28.55Zm1,1.49s.05,0,.05,0S26.69,30,26.71,30ZM27,32H27l-.2-.19h0v0Zm.23,4.66h0Z"/><path class="cls-1" d="M30.23,35.47c0-.22-.06-.44-.06-.66s0-.64,0-1v-.4a1,1,0,0,1,0-.35c0-.66,0-1.29,0-2v-.56a.9.9,0,0,1,0-.16v-.55a.59.59,0,0,1-.06-.16l0-.06a.53.53,0,0,0,0-.13l0,0a3.56,3.56,0,0,0-.54-.06h-.24l-.61,0c-.34,0-.5-.32-.59-.6,0-.12-.07-.65-.07-.77s0-.11,0-.16a.69.69,0,0,1,.24-.58l.45,0c.47,0,.94,0,1.41,0,1.41,0,2.81-.14,4.21-.14.58,0,.61.81.61,1.19a.78.78,0,0,1-.28.75,4.46,4.46,0,0,0-.48.09H33l-.38,0c-.11,0-.31,0-.31.14s.07.51.07.76,0,.27,0,.38c0,.47.2.93.19,1.4,0,0-.06.37-.06.4v.16c0,.54,0,1,0,1.58,0,.17,0,.4.06.53a4.86,4.86,0,0,0,0,1c0,.15.11.49.11.66a0,0,0,0,1,0,0c0,.21,0,.59-.18.74a2.9,2.9,0,0,1-.34.19h-.29l-.63,0c-.58-.06-.77-.11-.87-.71-.05-.21,0-.21-.09-.4S30.23,35.57,30.23,35.47Zm-1.76-7.29s.06-.05.06-.08h-.06Z"/><path class="cls-1" d="M37.78,34.36c-.16-.27-.5-.89-.5-.89h0s0,.28,0,.32v0c0,.28.06.65.08.88s0,.78,0,.85c0,.33,0,.65.06,1s0,.31,0,.47c0,.46-.79.37-1.1.37-.54,0-.7.06-1-.41a.55.55,0,0,1-.09-.28l-.1-1.13v-.12l-.18-1.77c0-1-.09-1.92-.09-2.86a19.45,19.45,0,0,1,.09-2s.06-.44.06-.48,0-.44,0-.52,0-.06,0-.06h0c0-.06,0-.09,0-.13v-.06l.21-.06h0c.81-.07,1.63-.18,2.41-.18.31,0,.6.05.89,0l.78.15c.36,0,.69.34,1.24.84l.4.54a3.48,3.48,0,0,1,.44,1.84V31c-.06.15-.08.28-.15.43a.81.81,0,0,1-.21.32s0,0,0,0-.08.19-.14.3a3.16,3.16,0,0,1-1.16.81h0l.45.72c.05.09.21.45.24.53a10.77,10.77,0,0,0,.67,1.31c.11.13.24.27.33.4a3.4,3.4,0,0,0,.16.34l.13.11a2.35,2.35,0,0,1,.34.84c0,.09-.82.21-.85.21a8.19,8.19,0,0,1-1.72-.24s0-.1,0-.12l-.14-.13a6.26,6.26,0,0,1-.63-1s0-.12,0-.14-.13-.26-.13-.27-.53-.84-.62-1A.46.46,0,0,0,37.78,34.36Zm.12-3.3c.07,0,.09.13.12.13s.1,0,.11-.06-.08,0-.08-.07v0l.17,0h0v0s0,.05-.06.06h.08s.14,0,.14-.07v0s0,0,0,0h0s.05.07.11.07V31c.32,0,.94-.15.94-.59a.93.93,0,0,0-.8-.81h-.41l-.12,0-.14,0-.09,0h0l-.18,0h0s0-.07,0-.08h0s0,0,0,0l-.18,0c-.13,0-.41,0-.51.05v.22l.1.68a2.66,2.66,0,0,0,.08.67l.22,0h0C37.5,31.26,37.71,31.09,37.9,31.06Zm-.71,1.12s.06,0,.06-.08-.09,0-.09,0Zm.18,0s.06,0,.07-.07A.07.07,0,0,0,37.37,32.13Zm.32-.92h0l.06,0-.09,0Zm0-1.72s.06,0,.06,0S37.72,29.47,37.72,29.49Zm.21,1.7v0h0Zm.5-2.44s-.12-.06-.16-.07h-.34v0h.23C38.22,28.71,38.34,28.75,38.43,28.75Zm-.24.74v0h-.06S38.16,29.49,38.19,29.49Zm.06,0h0l.11,0h0S38.25,29.44,38.25,29.49Zm.44-.68v0s-.07,0-.1,0h0a0,0,0,0,0,0,0A.37.37,0,0,0,38.69,28.81Zm.24,2.06s0-.05,0-.05A0,0,0,0,1,38.93,30.87Zm1-1.1h0a.37.37,0,0,0-.14-.28v0Zm0-1.15a0,0,0,0,0,0,0S39.87,28.62,39.88,28.62Zm0,1.41s0,0,0,0S39.87,30,39.88,30ZM40,28.75s0,0,0,0A0,0,0,1,0,40,28.75Zm0,1.66s0,0,0,0A0,0,0,0,0,40,30.41Zm.44,1.12s0-.05,0-.06S40.41,31.54,40.43,31.53Zm.07-.21h.06v0S40.5,31.29,40.5,31.32Z"/><path class="cls-1" d="M47.57,35a1.84,1.84,0,0,0-.25,0,10.4,10.4,0,0,1-1.24.06h-.6l-.18,0h0l-.1,0-.51,0a8.89,8.89,0,0,0-.55,1.26c0,.24.06.58-.17.74s-.25,0-.36.11h-.2c-.22,0-.44,0-.65,0s-.2.07-.29.07-.56-.1-.56-.38a6.25,6.25,0,0,1,.62-1.79c.29-.82.51-1.65.79-2.48a1.16,1.16,0,0,0,0-.18l.9-2.56c0-.14,0-.09.09-.22.22-.56.38-1.13.61-1.69s.2-.67.8-.75a2.74,2.74,0,0,1,.5,0,3.52,3.52,0,0,1,1.07.22c.12,0,.16.27.29.31a2.13,2.13,0,0,1,.27.62l.31,1c0,.11.09.19.09.3h0l0,.06v0c0,.09.16.54.2.65s0,0,0,0a1.49,1.49,0,0,0,.12.46,17.28,17.28,0,0,1,.83,2.52c.06.22.21.47.28.68.18.47.32.94.49,1.4a2.25,2.25,0,0,1,.13.42s0,.09,0,.12a1.21,1.21,0,0,1,.23.57v0a.74.74,0,0,0,0,.14l.12.11a2,2,0,0,1-.21.19h0c0,.06.12.08.14.08l-.33.08-.06.06-.3.05h0c-.21,0-.43,0-.62,0s-.15,0-.22,0a.84.84,0,0,1-.51-.12c-.52-.42-.62-1.6-.83-2.21Zm-2.18-2c.54,0,1.06,0,1.6,0,0,0,0,0,0,0s-.1-.25-.12-.36l-.28-.72-.36-1.47c-.14.09-.28.81-.34,1s-.24.63-.25.71l0,.1c0,.12-.22.66-.25.78Zm.25-3.88s0-.06,0-.06S45.61,29.13,45.64,29.13ZM48,32a0,0,0,0,0,0,0A0,0,0,0,0,48,32Zm1.54,4.72v0h0Z"/><path class="cls-1" d="M53.37,30.12V28.74c.07-.39,0-.8.1-1.19,0-.19.28-.15.4-.17H54s.06,0,.06,0c.19,0,.4.08.57.08s.11,0,.2,0c.33,0,.73,0,.8.43V28a6.29,6.29,0,0,1,.11.72c0,.49,0,1,0,1.47,0,0,0,.21,0,.27a.5.5,0,0,0,0,.13.63.63,0,0,0,0,.09,3.25,3.25,0,0,1,0,.7s0,.09,0,.12v.6a1.3,1.3,0,0,1,0,.15s0,.1,0,.12v0l-.07.44s0,.41,0,.45a.86.86,0,0,1,0,.22s0,.11,0,.12v0l.37,3c0,.5-.88.71-1.22.71a.93.93,0,0,1-1-.74l-.27-3.29s0-.85,0-1.19V32c0-.12-.07-1.06-.07-1.19v0C53.34,30.68,53.37,30.18,53.37,30.12Z"/><path class="cls-1" d="M55.82,32.56s0-.12,0-.15v0a5,5,0,0,0-.05-.58l0-.7,0,0c.08-1.07,0-2.15,0-3.23,0,0,0-.06-.06-.08v0l.06,0v-.07s0-.09,0-.09,0,0,.12,0,0,0,.1-.07.08,0,.11,0h.38a2.29,2.29,0,0,1,1.45.35,3.48,3.48,0,0,1,.22.28l.15.19.09.06a.53.53,0,0,1,0,.12h0c.11.21.2.46.32.66l.53.75a5.25,5.25,0,0,1,.25.55l.25.31a1.61,1.61,0,0,1,.35.5l.22.5c-.06.08.37.69.43.79s.22.42.34.66l.27-5.06v-.39c0-.21.14-.09.18-.15s0-.07,0-.07a1,1,0,0,1,.6-.25h.54c.06.09.21.09.27.12.29.07.39.51.41.82,0,.14-.06.68-.08.81s0,.15,0,.16,0,.08,0,.09v.06c0,.13,0,.29,0,.46v.17a3.29,3.29,0,0,1,0,.46v.47a3.17,3.17,0,0,1,.1.88v.07s0,.28,0,.31v0a2.34,2.34,0,0,0,0,.38s0,.16,0,.19,0,0,0,.09a2.46,2.46,0,0,0,.06.53l.12,2.88c0,.14.06.22.06.38,0,.34-.16.45-.46.56-.11,0-.67.1-.79.11h-.63a1.36,1.36,0,0,0-.28-.11c-.12,0-.19-.24-.28-.33l-.22-.19-.75-.91a10.27,10.27,0,0,0-.72-1.09c-.13-.2-.34-.32-.47-.54L58,32.19c-.1-.09-.13-.28-.24-.35a2.31,2.31,0,0,0,0,.57.06.06,0,0,0,0,0s0,.11,0,.14l0,.51a.11.11,0,0,0,0,.09c0,.1.13.16.12.28s0,.07,0,.07,0-.13-.09-.13h0c0,.09.06.72.09.75a4.46,4.46,0,0,0,0,.73c.16,0,.22.86.21,1h0l0,.91s0,.06,0,.08V37s-.05,0-.06,0a3.46,3.46,0,0,1-1.19.24c-.77,0-.78-.61-.77-1.24v-.12a.94.94,0,0,0,0-.09,1.09,1.09,0,0,1,0-.18h0l0-.45,0,0,0-.91,0,0c0-.38,0-.75,0-1.13a0,0,0,1,1,0,0v-.06s0,0,0,0Zm0-1.34s0,0,0,0A0,0,0,1,1,55.79,31.22Zm0,4a0,0,0,1,1,0,0A0,0,0,0,1,55.82,35.23Zm0,.13a0,0,0,0,1,0,0A0,0,0,0,1,55.82,35.36Zm0,.37s0,0,0-.06S55.8,35.73,55.83,35.73ZM56,27.49s0,0,0,0S56,27.5,56,27.49Zm.32,8.78s0-.05,0-.05A0,0,0,0,0,56.32,36.27Zm.06-4.45s0-.07,0-.07S56.35,31.82,56.38,31.82Zm.11,1.78s0-.07,0-.09S56.48,33.62,56.49,33.6Zm0-.78h0v-.05Zm0-.26h0s0-.14.06-.19v-.08C56.49,32.29,56.51,32.47,56.51,32.56Zm.07-.34,0,0v-.44a.06.06,0,0,0-.06,0v0s.06-.07.06-.07v-.27s-.06,0-.06.05l0,.39h0v.34Zm0-1.54v-.06l0,0Zm0-.31s0-.12,0-.15S56.57,30.4,56.58,30.37Zm0-.66s0-.06,0-.08,0-.07,0-.09Zm.24,3.23c0,.12.09.46.19.53v-.1l0,0a.16.16,0,0,1,0-.06v0s0-.06,0-.09,0-.24.06-.25v-.24c0-.07,0-.14,0-.22v-.11c-.09,0-.09-.16-.09-.24l-.05.12v.07c0,.21-.14.25-.09.47l0,.05Zm.06-.84A.33.33,0,0,0,57,32h0S57,32,57,32a7.07,7.07,0,0,0-.06-.94s0,0,0,.06l0,0,0,.07v0l0,.08s0,.07,0,.09l0,0a2.18,2.18,0,0,0,0,.25c0,.07-.06.07-.06.12A1.6,1.6,0,0,1,56.88,32.1Zm0-.48a0,0,0,0,0,0-.05Zm.06,1.2v.06s0,0,0-.06Zm0,.18s0-.06,0-.06S56.94,33,56.92,33Zm0-1.12h0v0Zm0,.77s0-.08,0-.06S57,32.65,56.94,32.65Zm.07-.2s0-.07,0-.07S57,32.45,57,32.45Zm.72.18v0l0-.07v0S57.73,32.6,57.73,32.63Zm0-.18s0,0,0,0A0,0,0,0,1,57.74,32.45Zm.14-.07s0-.12,0-.1S57.89,32.38,57.88,32.38Zm4.7,4.26a.09.09,0,0,0,.09,0c0-.08,0-.18-.05-.21s0,.24-.1.22S62.55,36.64,62.58,36.64Z"/><path class="cls-1" d="M64,36.32c0-.13.06-.27.06-.4V35.8a13.31,13.31,0,0,0-.09-1.38l0,.06v-1l0,0c0-.3-.08-.59-.11-.9,0-1.17,0-2.33-.09-3.51,0-.31,0-.65,0-1a4,4,0,0,1,0-.6c0-.09.08-.07.11-.14,1.95-.2,3.91-.12,5.39,1.24a5.47,5.47,0,0,1,1.73,4.12,5.24,5.24,0,0,1-.13,1.35c0,.07-.25.68-.26.75-.14.37-.12.66-.36,1l0,0c-1.3,1.53-2,1.55-5.1,1.74-.09,0-.27,0-.31-.1A1,1,0,0,1,64,36.32Zm-.09-.46s0-.1,0-.08A0,0,0,0,1,63.87,35.86Zm0,.19a0,0,0,0,1,0,0S63.93,36.05,63.91,36.05Zm.13.37s0-.09,0-.12S64,36.45,64,36.42Zm.62-2a0,0,0,1,0,0,0A0,0,0,1,0,64.66,34.42ZM66.09,34s0,.34,0,.38a3.7,3.7,0,0,0,.2.84h0c1.58.24,2.14-.34,2.14-2.31s-.48-3.64-2.64-3.71h-.08Z"/><path class="cls-1" d="M71.61,37.32c-.66-.1-.63-.52-.71-1.06,0-.1-.13-.9-.13-1a16.7,16.7,0,0,1-.07-1.88,3.4,3.4,0,0,1,0-.78c0-.34,0-1.88,0-2.22,0-.1,0-1.23,0-1.32v-.25c0-.09.06-.73.06-.82a1.19,1.19,0,0,1,.07-.5l.07,0c.13-.06.09-.1.28-.13a18,18,0,0,1,2.09-.22v.05h-.12v0H75.8a1.8,1.8,0,0,1,.54.14h0a.1.1,0,0,1,0,0,2.4,2.4,0,0,1,.47,1.4c0,.1,0,.08-.07.2a.79.79,0,0,1-.56.46c-.07,0-.06,0-.1,0h-.52a10.89,10.89,0,0,1-1.85.16c-.13,0-.24,0-.35,0s-.27,0-.27.18c0,.35.06,1,.06,1.36l1,0c.22,0,1.13,0,1.35,0a1,1,0,0,1,.32.3,1.67,1.67,0,0,1,.38,1.07,5.11,5.11,0,0,1-.14.54l-.15.27a13.38,13.38,0,0,1-2.15.11,2.16,2.16,0,0,0-.55,0s0,0,0,0c0,.36,0,1,.06,1.34a1.3,1.3,0,0,0,.06.25l0,0,.16,0h0s0,0,.08.06a1.86,1.86,0,0,1,.51-.06h0l1.69,0c.52.09,1,.37,1,.92,0,.17-.11.3-.11.43s0,.18,0,.25c0,.22-.16.28-.29.43s-.07.19-.25.19H75.4c-.09,0,0-.09-.12-.09-.45,0-1.63.13-2.07.13a.43.43,0,0,1-.19,0l0-.05h-.13Zm1.57,0,0,0h-.08Zm.24-10.17s0-.06,0-.06S73.43,27.15,73.42,27.15Zm.78,4.06h.89l.35.09s.2.09.27.09l0,0c0-.19-.44-.25-.57-.25s-.89,0-1,0S74.2,31.19,74.2,31.21ZM75.14,35h0S75.15,35.07,75.14,35Zm0-3.7a0,0,0,0,0,0,0A0,0,0,1,0,75.17,31.34Zm.7,3.7h0S75.89,35.07,75.87,35Zm.75,1.22a.13.13,0,0,0,.1-.06v-.12c0-.19-.06-.17-.16-.28s-.1-.17-.19-.17c0,.2.26.28.26.5h0s0,0,0,0a.94.94,0,0,1,0-.09,1.18,1.18,0,0,1-.06-.13h0C76.49,36,76.52,36.26,76.62,36.26Z"/><path class="cls-1" d="M76.88,30.74v-.15c0-.05-.06-.4-.07-.44a9.39,9.39,0,0,0-.1-1.19v-.61a5.35,5.35,0,0,1,0-.88c0-.06.14,0,.14-.13s-.07-.12-.07-.18a.62.62,0,0,0,.2,0h.62l.34-.06c.41,0,1,0,1.48,0a7.78,7.78,0,0,1,1.61.14,3.22,3.22,0,0,1,2.64,3.19,3.09,3.09,0,0,1-.29,1.31c-.06.15-.39.43-.39.51a.26.26,0,0,0,.2-.07l0,0a2.16,2.16,0,0,1-.4.31s-.57.37-.69.4l-.25.05c-.15,0-.27.15-.4.17s-.43,0-.62.06l-.14.05-.09,0h-.84l-.06,0-.16,0h-.2a.14.14,0,0,0,0,.1c0,1.12.17,2.23.14,3.37a.32.32,0,0,1,0,.17c0,.46-.73.5-1.08.5a3.63,3.63,0,0,1-.92-.12,2.28,2.28,0,0,0-.36-.1.62.62,0,0,1-.25-.39,20.36,20.36,0,0,1-.05-2.34c0-.62-.07-1.24-.07-1.85S76.88,31.35,76.88,30.74Zm1.55,6c.13,0,.13-.15.13-.25v-.12s0-.18-.1-.18h0c-.07,0-.13.44-.13.46S78.35,36.75,78.43,36.75Zm.89-5.49c2.75-.19,2.25-1.61,1.5-1.85a1.39,1.39,0,0,1-.44-.14,2.11,2.11,0,0,0-.56-.09c-.2,0-.41-.09-.65-.09,0,.2,0,.4,0,.59s0,.36,0,.56A6,6,0,0,0,79.32,31.26Zm1.49-3.48s0,0,0,0S80.81,27.77,80.81,27.78Zm.61,2.78h0s0-.12,0-.15v0a1.55,1.55,0,0,0,0-.18h0Zm.21-.65h0a.07.07,0,0,0,0-.08v0S81.58,29.91,81.63,29.91Zm0,.52a.35.35,0,0,0,0-.12s0-.12,0-.13,0,.13,0,.16v0A.07.07,0,0,0,81.67,30.43ZM82.55,28h0s0,0,0,0l0,0a0,0,0,0,1,0,0S82.54,28,82.55,28Zm.14.13c0-.05,0-.07-.09-.1v0S82.64,28.13,82.69,28.13Z"/><path class="cls-1" d="M84.48,37.32c-.66-.1-.63-.52-.71-1.06,0-.1-.13-.9-.13-1a16.7,16.7,0,0,1-.07-1.88,3.4,3.4,0,0,1,0-.78c0-.34,0-1.88,0-2.22,0-.1,0-1.23,0-1.32v-.25c0-.09.06-.73.06-.82a1.06,1.06,0,0,1,.08-.5l.07,0c.13-.06.09-.1.28-.13a18,18,0,0,1,2.09-.22v.05h-.12v0h2.59a1.8,1.8,0,0,1,.54.14h0s0,0,0,0a2.4,2.4,0,0,1,.47,1.4c0,.1,0,.08-.08.2a.75.75,0,0,1-.55.46c-.08,0-.06,0-.11,0h-.51a10.89,10.89,0,0,1-1.85.16c-.13,0-.24,0-.36,0s-.26,0-.26.18c0,.35.06,1,.06,1.36l1,0c.22,0,1.14,0,1.36,0a1,1,0,0,1,.32.3,1.67,1.67,0,0,1,.38,1.07,4.84,4.84,0,0,1-.15.54l-.14.27a13.44,13.44,0,0,1-2.15.11,2.24,2.24,0,0,0-.56,0s0,0,0,0c0,.36,0,1,.06,1.34a1.3,1.3,0,0,0,.06.25l0,0,.16,0h0s0,0,.08.06A1.82,1.82,0,0,1,87,35.1h0l1.69,0c.51.09,1,.37,1,.92,0,.17-.1.3-.1.43s0,.18,0,.25c0,.22-.16.28-.29.43s-.08.19-.25.19h-.78c-.09,0,0-.09-.12-.09-.45,0-1.63.13-2.07.13a.41.41,0,0,1-.19,0l0-.05h-.13Zm1.57,0,0,0H86Zm.23-10.17s0-.06,0-.06S86.3,27.15,86.28,27.15Zm.78,4.06H88l.35.09s.19.09.27.09l0,0c0-.19-.44-.25-.58-.25s-.88,0-1,0S87.06,31.19,87.06,31.21ZM88,35h0S88,35.07,88,35Zm0-3.7a0,0,0,0,0,0,0A0,0,0,0,0,88,31.34Zm.71,3.7h0S88.75,35.07,88.74,35Zm.75,1.22a.13.13,0,0,0,.1-.06v-.12c0-.19-.06-.17-.16-.28s-.1-.17-.19-.17c0,.2.26.28.26.5h0s0,0,0,0a.94.94,0,0,1,0-.09L89.38,36h0C89.36,36,89.38,36.26,89.49,36.26Z"/><path class="cls-1" d="M89.6,32.56s0-.12,0-.15v0c0-.09,0-.52,0-.58l0-.7,0,0c.07-1.07,0-2.15,0-3.23,0,0-.05-.06-.06-.08v0a.11.11,0,0,1,.06,0v0l0,0s0-.09.05-.09,0,0,.11,0,0,0,.11-.07.07,0,.1,0h.38a2.34,2.34,0,0,1,1.46.35s.16.21.22.28l.14.19.09.06a.27.27,0,0,1,0,.12h0c.12.21.21.46.32.66l.53.75c.14.17.15.39.25.55s.18.23.25.31a1.64,1.64,0,0,1,.36.5l.22.5c-.06.08.36.69.42.79s.22.42.34.66l.28-5.06v-.39c0-.21.13-.09.18-.15s0-.07,0-.07a1.07,1.07,0,0,1,.6-.25h.55c0,.09.2.09.26.12.29.07.4.51.41.82,0,.14-.06.68-.07.81s0,.15,0,.16,0,.08,0,.09v.06c0,.13,0,.29,0,.46v.17a2.24,2.24,0,0,1,0,.46v.47a2.83,2.83,0,0,1,.1.88v.07s0,.28,0,.31v0c0,.14,0,.25,0,.38s0,.16,0,.19,0,0,0,.09a2,2,0,0,0,.06.53l.11,2.88c0,.14.06.22.06.38,0,.34-.16.45-.45.56-.12,0-.68.1-.8.11h-.63a1.17,1.17,0,0,0-.28-.11c-.11,0-.19-.24-.28-.33l-.22-.19-.75-.91a8.93,8.93,0,0,0-.72-1.09c-.13-.2-.33-.32-.47-.54l-1.19-1.91c-.1-.09-.13-.28-.23-.35a1.91,1.91,0,0,0,0,.57,0,0,0,0,0,0,0s0,.11,0,.14v.51a.11.11,0,0,0,0,.09c0,.1.13.16.11.28s0,.07,0,.07,0-.13-.09-.13h0c.05.09.06.72.09.75a3.59,3.59,0,0,0,0,.73c.16,0,.21.86.2,1h0l0,.91s0,.06,0,.08V37l-.06,0a3.46,3.46,0,0,1-1.19.24c-.76,0-.78-.61-.76-1.24v-.12a.94.94,0,0,0,0-.09.55.55,0,0,1,0-.18h.05v-.45l0,0,0-.91,0,0c0-.38,0-.75,0-1.13a0,0,0,1,1,0,0v-.06a0,0,0,0,1,0,0Zm0-1.34s0,0,0,0A0,0,0,1,1,89.57,31.22Zm0,4a0,0,0,1,1,0,0A0,0,0,0,1,89.6,35.23Zm0,.13a0,0,0,0,1,0,0A0,0,0,0,1,89.6,35.36Zm0,.37a.06.06,0,0,0,0-.06S89.59,35.73,89.62,35.73Zm.16-8.24s0,0,0,0S89.78,27.5,89.78,27.49Zm.32,8.78s0-.05,0-.05A0,0,0,0,0,90.1,36.27Zm.06-4.45s0-.07,0-.07S90.13,31.82,90.16,31.82Zm.12,1.78s0-.07,0-.09S90.26,33.62,90.28,33.6Zm0-.78h0l0-.05Zm0-.26h0s0-.14.06-.19v-.08C90.28,32.29,90.29,32.47,90.29,32.56Zm.08-.34v-.47a.09.09,0,0,0-.06,0v0s.06-.07.06-.07v-.27s-.06,0-.06.05v.39h0v.34Zm0-1.54,0-.09,0,0v.06Zm0-.31s0-.12,0-.15S90.35,30.4,90.37,30.37Zm0-.66s0-.06,0-.08,0-.07,0-.09Zm.23,3.23c.05.12.09.46.19.53v-.13a.16.16,0,0,1,0-.06v0s0-.06,0-.09,0-.24.06-.25l0-.19,0,0v0c0-.07,0-.14,0-.22v-.11c-.09,0-.09-.16-.09-.24l-.06.12v.07c0,.21-.13.25-.09.47v.18Zm.06-.84a.33.33,0,0,0,.07-.13h0s0,.05.06.05a5.72,5.72,0,0,0-.06-.94s0,0,0,.06v.22s0,.07,0,.09v0a1.1,1.1,0,0,0,0,.25c0,.07-.06.07-.06.12S90.68,32,90.66,32.1Zm0-.48a0,0,0,0,0,0-.05Zm.06,1.2v.06s0,0,0-.06Zm0,.18s0-.06,0-.06S90.72,33,90.71,33Zm0-1.12h0v0Zm0,.77s0-.08,0-.06S90.73,32.65,90.72,32.65Zm.07-.2s0-.07,0-.07S90.82,32.45,90.79,32.45Zm.72.18v0l0-.07v0S91.51,32.6,91.51,32.63Zm0-.18s0,0,0,0A0,0,0,0,1,91.53,32.45Zm.13-.07s0-.12,0-.1S91.67,32.38,91.66,32.38Zm4.7,4.26s.08,0,.09,0,0-.18,0-.21,0,.24-.11.22S96.33,36.64,96.36,36.64Z"/><path class="cls-1" d="M97.74,36.32c0-.13.06-.27.06-.4V35.8a11,11,0,0,0-.09-1.38l0,.06v-1l0,0c0-.3-.09-.59-.12-.9,0-1.17,0-2.33-.09-3.51,0-.31,0-.65,0-1a4,4,0,0,1,0-.6c0-.09.07-.07.1-.14,2-.2,3.91-.12,5.39,1.24a5.44,5.44,0,0,1,1.74,4.12,5.72,5.72,0,0,1-.13,1.35c0,.07-.25.68-.27.75a3,3,0,0,1-.35,1l0,0c-1.29,1.53-2,1.55-5.1,1.74-.08,0-.26,0-.31-.1A1,1,0,0,1,97.74,36.32Zm-.09-.46s0-.1,0-.08A0,0,0,0,1,97.65,35.86Zm0,.19a0,0,0,0,1,0,0S97.71,36.05,97.7,36.05Zm.13.37a.24.24,0,0,0,0-.12S97.8,36.45,97.83,36.42Zm.62-2a0,0,0,1,0,0,0A0,0,0,1,0,98.45,34.42ZM99.87,34a2.41,2.41,0,0,1,0,.38,4.29,4.29,0,0,0,.21.84h0c1.59.24,2.15-.34,2.15-2.31s-.49-3.64-2.65-3.71h-.07Z"/><path class="cls-1" d="M105.39,37.32c-.66-.1-.63-.52-.7-1.06,0-.1-.13-.9-.13-1a14.63,14.63,0,0,1-.08-1.88,3.41,3.41,0,0,1,0-.78c0-.34,0-1.88,0-2.22,0-.1,0-1.23,0-1.32v-.25c0-.09.06-.73.06-.82a1.19,1.19,0,0,1,.07-.5l.08,0c.13-.06.09-.1.28-.13a18.11,18.11,0,0,1,2.08-.22v.05H107v0h2.58a1.94,1.94,0,0,1,.55.14h0s0,0,0,0a2.39,2.39,0,0,1,.46,1.4c0,.1,0,.08-.07.2a.77.77,0,0,1-.56.46c-.07,0-.06,0-.1,0h-.51a10.92,10.92,0,0,1-1.86.16c-.13,0-.23,0-.35,0s-.26,0-.26.18c0,.35.06,1,.06,1.36l1,0c.22,0,1.13,0,1.35,0a1,1,0,0,1,.33.3A1.67,1.67,0,0,1,110,32.5a4.84,4.84,0,0,1-.15.54l-.15.27a13.26,13.26,0,0,1-2.14.11,2.24,2.24,0,0,0-.56,0s0,0,0,0c0,.36,0,1,.06,1.34a1.52,1.52,0,0,0,0,.25l0,0,.17,0h0s0,0,.07.06a1.89,1.89,0,0,1,.52-.06h0l1.69,0c.51.09,1,.37,1,.92,0,.17-.1.3-.1.43s0,.18,0,.25c0,.22-.16.28-.3.43s-.07.19-.25.19h-.77c-.09,0,0-.09-.12-.09-.46,0-1.63.13-2.07.13a.48.48,0,0,1-.2,0l0-.05h-.13Zm1.58,0,0,0h-.07Zm.23-10.17s0-.06,0-.06S107.22,27.15,107.2,27.15Zm.78,4.06h.9l.35.09s.19.09.26.09l0,0c0-.19-.44-.25-.57-.25s-.88,0-1,0S108,31.19,108,31.21Zm.94,3.83h0S108.94,35.07,108.92,35Zm0-3.7a0,0,0,0,0,0,0A0,0,0,1,0,109,31.34Zm.71,3.7h0S109.67,35.07,109.66,35Zm.75,1.22a.18.18,0,0,0,.1-.06v-.12c0-.19-.06-.17-.16-.28s-.11-.17-.19-.17c0,.2.26.28.26.5h0s0,0,0,0a.94.94,0,0,1,0-.09L110.3,36h0C110.27,36,110.3,36.26,110.41,36.26Z"/><path class="cls-1" d="M110.52,32.56s0-.12,0-.15v0c0-.09,0-.52,0-.58l0-.7,0,0c.07-1.07,0-2.15,0-3.23,0,0-.05-.06-.06-.08v0a.11.11,0,0,1,.06,0v0l0,0s0-.09,0-.09,0,0,.12,0,0,0,.11-.07.07,0,.1,0h.38a2.29,2.29,0,0,1,1.45.35,3.15,3.15,0,0,1,.23.28l.14.19.09.06a.53.53,0,0,1,0,.12h0c.12.21.2.46.32.66l.53.75a5.25,5.25,0,0,1,.25.55s.18.23.25.31a1.61,1.61,0,0,1,.35.5l.22.5c-.06.08.37.69.43.79s.22.42.34.66l.28-5.06v-.39c0-.21.13-.09.17-.15s0-.07.05-.07a1,1,0,0,1,.6-.25h.54c.06.09.21.09.27.12.29.07.39.51.41.82,0,.14-.06.68-.07.81s0,.15,0,.16,0,.08,0,.09v.06c0,.13,0,.29,0,.46v.17a2.24,2.24,0,0,1,0,.46v.47a3.17,3.17,0,0,1,.1.88v.07s0,.28,0,.31v0c0,.14,0,.25,0,.38s0,.16,0,.19,0,0,0,.09a1.94,1.94,0,0,0,.05.53l.12,2.88c0,.14.06.22.06.38,0,.34-.16.45-.45.56-.12,0-.68.1-.8.11h-.63a1.36,1.36,0,0,0-.28-.11c-.12,0-.19-.24-.28-.33l-.22-.19-.75-.91a8.93,8.93,0,0,0-.72-1.09c-.13-.2-.34-.32-.47-.54l-1.19-1.91c-.1-.09-.13-.28-.23-.35a1.94,1.94,0,0,0,0,.57.06.06,0,0,0,0,0s0,.11,0,.14l0,.51a.11.11,0,0,0,0,.09c0,.1.14.16.12.28s0,.07,0,.07,0-.13-.09-.13h0c0,.09.06.72.09.75a4.46,4.46,0,0,0,0,.73c.16,0,.22.86.21,1h0l0,.91s0,.06,0,.08V37s0,0-.06,0a3.46,3.46,0,0,1-1.19.24c-.76,0-.78-.61-.76-1.24v-.12a.94.94,0,0,0,0-.09.55.55,0,0,1,0-.18h.05v-.45l0,0,0-.91,0,0c0-.38,0-.75,0-1.13a0,0,0,1,1,0,0v-.06a0,0,0,0,1,0,0Zm0-1.34s0,0,0,0A0,0,0,1,1,110.49,31.22Zm0,4a0,0,0,1,1,0,0A0,0,0,0,1,110.52,35.23Zm0,.13a0,0,0,0,1,0,0A0,0,0,0,1,110.52,35.36Zm0,.37a.06.06,0,0,0,0-.06S110.51,35.73,110.54,35.73Zm.16-8.24s0,0,0,0S110.7,27.5,110.7,27.49Zm.32,8.78s0-.05,0-.05A0,0,0,0,0,111,36.27Zm.06-4.45s0-.07,0-.07S111.05,31.82,111.08,31.82Zm.12,1.78s0-.07,0-.09S111.18,33.62,111.2,33.6Zm0-.78h0l0-.05Zm0-.26h0a1,1,0,0,0,0-.19v-.08C111.2,32.29,111.21,32.47,111.21,32.56Zm.07-.34,0,0v-.44a.06.06,0,0,0-.06,0v0s.06-.07.06-.07v-.27s-.06,0-.06.05v.39h0v.34Zm0-1.54v-.06l0,0Zm0-.31s0-.12,0-.15S111.27,30.4,111.28,30.37Zm0-.66s0-.06,0-.08,0-.07,0-.09Zm.24,3.23c0,.12.09.46.19.53v-.13a.16.16,0,0,1,0-.06v0s0-.06,0-.09,0-.24.06-.25v-.24c0-.07,0-.14,0-.22v-.11c-.08,0-.08-.16-.08-.24l-.06.12v.07c0,.21-.13.25-.09.47l0,.05Zm.06-.84a.33.33,0,0,0,.07-.13h0s0,.05.06.05a5.72,5.72,0,0,0-.06-.94s0,0,0,.06l0,0,0,.07v0l0,.08s0,.07,0,.09l0,0a2.18,2.18,0,0,0,0,.25c0,.07-.06.07-.06.12A1.6,1.6,0,0,1,111.58,32.1Zm0-.48a0,0,0,0,0,0-.05Zm.06,1.2v.06s0,0,0-.06Zm0,.18s0-.06,0-.06S111.64,33,111.62,33Zm0-1.12h0v0Zm0,.77s0-.08,0-.06S111.65,32.65,111.64,32.65Zm.07-.2s0-.07,0-.07S111.74,32.45,111.71,32.45Zm.72.18v0l0-.07v0S112.43,32.6,112.43,32.63Zm0-.18s0,0,0,0A0,0,0,0,1,112.45,32.45Zm.13-.07s0-.12,0-.1S112.59,32.38,112.58,32.38Zm4.7,4.26a.09.09,0,0,0,.09,0c0-.08,0-.18-.05-.21s0,.24-.1.22S117.25,36.64,117.28,36.64Z"/><path class="cls-1" d="M121.27,37.45h-.1l-.5-.12a1,1,0,0,1-.25-.16,5,5,0,0,1-1.75-2.22c0-.16-.13-.3-.16-.46a7.44,7.44,0,0,1-.22-2.06,12.4,12.4,0,0,1,.22-2.18,4.2,4.2,0,0,1,.07-.62,4,4,0,0,1,1.11-1.94c.07-.06.32-.05.47-.13l.19-.12.72-.27h.37a3.25,3.25,0,0,1,2.57,1c.22-.09.47.5.45.65l.15.35v.1a1.29,1.29,0,0,1-.06.37,1.72,1.72,0,0,0-.25.7l-.09,0a.07.07,0,0,0-.06,0c-.1,0-.14.08-.2.14h0a.15.15,0,0,1,0,0h0c-.12,0-.28.1-.44.1-.9,0-1.22-.29-1.41-1.19-.08-.37,0-.4-.43-.4-.13,0-.5,0-.5.22h0s0,0,0-.06a3.25,3.25,0,0,0-.37,1.18,4.14,4.14,0,0,1-.09,1.19c0,.32,0,.56,0,.86s0,.36,0,.53,0,.09,0,.09v.5c0,.07,0,.28,0,.29l0,0c.08,0,.06-.22.06-.26s0-.26,0-.4a.27.27,0,0,1,.09-.22v.11c0,.07,0,.1,0,.16s.06.19.06.28h0s0,.06-.06.07l0,0v.06a.32.32,0,0,1-.12.22s0,.17,0,.22.07.57.17.63v-.09c0-.09,0-.15,0-.23s0-.09,0-.11,0,0,0,0v0a1.36,1.36,0,0,1,.24.54c0,.05,0,.09,0,.13s.37.5.5.5a9.35,9.35,0,0,0,.95-1.25,1.49,1.49,0,0,1,.68-.42s0,0,0,.06h0s.15-.09.21-.11a1,1,0,0,1,.48-.07c.13,0,.18.06.29.07h.15a.61.61,0,0,1,.19.28c0,.06.21.16.25.22s.16.31.25.44a.18.18,0,0,1,.05.08s-.05.12-.05.13a1,1,0,0,1,0,.25c0,.09-.12.15-.13.24s-.18.69-.28.69,0,0-.1,0-.16.23-.22.32l-.22.28c-.33.35-.42.32-.9.53l-.1.06s-.08.06-.09.06-.06,0-.06,0a2.48,2.48,0,0,0-.4.15c-.06,0,0,.09-.1.09s-.07,0-.09-.06l-.45,0h-.06v0h.4v0l-.49,0-.07-.09-.12,0h-.3S121.27,37.39,121.27,37.45Zm-1.45-4.82v-.16s0,0,0,0S119.8,32.62,119.82,32.63ZM121,36.05c.09.12.25.12.41.12a1,1,0,0,0,.52-.06c-.12,0-.24-.06-.34-.07s-.49-.07-.53-.13l0,.06a2.2,2.2,0,0,1-.33-.4c0-.07-.13-.15-.09-.24a7,7,0,0,1-.33-1,4.85,4.85,0,0,1,0-.85h0s0,.07-.06.07h0a6,6,0,0,0-.16-1v.08c0,.39.13.76.13,1.13v0a.3.3,0,0,1,0-.14c0-.14-.12-.71-.15-.83l0,0h0v0a3.64,3.64,0,0,0,.11,1s0,.05,0,.09a3,3,0,0,0,.39,1.25v0l0,0a.16.16,0,0,0,0,.06l0,0h0c0,.06.1.06.06.14l.16.22s0,0,0,.06S120.91,36,121,36.05Zm-1,.74h0a.08.08,0,0,0-.08-.07S120,36.79,120,36.79Zm.06-3.94v-.07a.05.05,0,0,0,0,0S120.07,32.85,120.07,32.85Zm0,.1s0,0,0,0S120.05,33,120.07,33Zm0,.39V33.2s0-.14,0-.17v.09A.51.51,0,0,0,120.11,33.34Zm.41,1.42.12.12v-.13s.11,0,.11,0-.11-.23-.14-.32c-.09-.34-.11-.69-.17-1,0,0,0-.23,0-.28l0,0a1.51,1.51,0,0,0,0-.47h0c-.06.06,0,.21,0,.27,0,.44.09.89.09,1.33h0A.84.84,0,0,0,120.52,34.76Zm0,.28a0,0,0,1,0,0,0A0,0,0,1,0,120.55,35Zm.18.27v-.05a.3.3,0,0,0-.15-.22v.06C120.58,35.17,120.61,35.32,120.73,35.31Zm-.12.26a0,0,0,1,1,0,0A0,0,0,1,1,120.61,35.57Zm0,.21a0,0,0,0,0,0,0S120.61,35.79,120.64,35.78Zm0-1.05s0,0,0,0S120.73,34.73,120.69,34.73Zm0-.95s0-.05,0-.05S120.75,33.78,120.73,33.78Zm0,.36s0,0,0,0S120.75,34.14,120.73,34.14Zm0-.25s0,.12,0,.15l0,0v-.18Zm.1-4a0,0,0,0,1,0,0A0,0,0,0,1,120.86,29.9Zm.21,6c0-.08-.1-.08-.16-.08S121,35.88,121.07,35.88Zm0,.12,0,0h0s0,0,0,0Zm.38,1.44s.21,0,.18,0A.54.54,0,0,1,121.42,37.44Zm.15-2.4s0,0,0,0S121.58,35,121.57,35Zm.13,2.28a3.39,3.39,0,0,0,.46,0c0-.07-.06-.08-.12-.08s-.27,0-.4,0v0S121.7,37.32,121.7,37.32Zm.21-1.32a0,0,0,1,0,0,0A0,0,0,0,0,121.91,36Zm.25.2h0s0,0,0,0v0Zm.17,0h0s.09,0,.09-.06S122.33,36.11,122.33,36.16Zm0-.83v0a.14.14,0,0,0,.08-.13S122.35,35.28,122.35,35.33Zm.07,2.05s0-.06,0-.06A0,0,0,0,0,122.42,37.38Zm0-3.06v0s0,0,0,0a.52.52,0,0,0,.2-.25A.31.31,0,0,0,122.43,34.32Zm.2,1.72s.07,0,.1-.07h0A.07.07,0,0,0,122.63,36Zm.29-2.15H123v0S122.92,33.87,122.92,33.89Zm.07-6.34c.05,0,.05-.06,0-.06S123,27.55,123,27.55Zm.86,2.66h0v0Z"/><path class="cls-1" d="M124.92,30.12V28.74c.07-.39,0-.8.1-1.19,0-.19.28-.15.4-.17h.08s.06,0,.06,0c.19,0,.4.08.58.08s.1,0,.19,0c.33,0,.73,0,.8.43V28a6.29,6.29,0,0,1,.11.72c0,.49,0,1,0,1.47,0,0,0,.21,0,.27a.5.5,0,0,0,0,.13.63.63,0,0,0,0,.09,3.25,3.25,0,0,1,0,.7s0,.09,0,.12v.6a1.3,1.3,0,0,1,0,.15s0,.1,0,.12v0l-.07.44s0,.41,0,.45a.86.86,0,0,1,0,.22s0,.11,0,.12v0l.36,3c0,.5-.88.71-1.22.71a.93.93,0,0,1-1-.74L125,33.35s0-.85,0-1.19V32c0-.12-.07-1.06-.07-1.19v0C124.89,30.68,124.92,30.18,124.92,30.12Z"/><path class="cls-1" d="M133,35a2.21,2.21,0,0,0-.25,0,10.13,10.13,0,0,1-1.23.06h-.61l-.17,0h0l-.1,0-.52,0a8.85,8.85,0,0,0-.54,1.26c0,.24.06.58-.18.74s-.25,0-.35.11h-.21c-.22,0-.44,0-.64,0s-.21.07-.3.07-.55-.1-.55-.38a6.54,6.54,0,0,1,.61-1.79c.3-.82.52-1.65.8-2.48a1.16,1.16,0,0,0,0-.18l.9-2.56c0-.14,0-.09.08-.22.22-.56.39-1.13.62-1.69s.19-.67.79-.75a2.85,2.85,0,0,1,.5,0,3.58,3.58,0,0,1,1.08.22c.11,0,.16.27.29.31a2.84,2.84,0,0,1,.27.62l.3,1c0,.11.09.19.09.3h0l-.05.06v0c0,.09.16.54.21.65s0,0,0,0a1.83,1.83,0,0,0,.12.46,17.32,17.32,0,0,1,.84,2.52c.06.22.2.47.28.68.17.47.32.94.48,1.4a2.25,2.25,0,0,1,.13.42s0,.09,0,.12a1.32,1.32,0,0,1,.23.57v0a.74.74,0,0,0,0,.14.57.57,0,0,0,.11.11,1.84,1.84,0,0,1-.2.19h0c0,.06.12.08.15.08l-.34.08-.06.06-.29.05h0c-.21,0-.43,0-.62,0s-.15,0-.22,0a.85.85,0,0,1-.52-.12c-.51-.42-.61-1.6-.82-2.21Zm-2.17-2c.54,0,1,0,1.6,0,0,0,0,0,0,0s-.1-.25-.12-.36l-.28-.72-.37-1.47a3.42,3.42,0,0,0-.33,1c0,.08-.24.63-.25.71l0,.1c-.05.12-.22.66-.25.78Zm.25-3.88s0-.06,0-.06S131.06,29.13,131.09,29.13ZM133.44,32a0,0,0,0,0,0,0A0,0,0,1,0,133.44,32ZM135,36.69v0h0Z"/><path class="cls-1" d="M5.59,19.55l-.19,0-.94-.22A2,2,0,0,1,4,19,9.17,9.17,0,0,1,.72,14.85C.63,14.54.47,14.29.41,14A13.82,13.82,0,0,1,0,10.14,23.86,23.86,0,0,1,.41,6,5.83,5.83,0,0,1,.55,4.87,7.33,7.33,0,0,1,2.62,1.24c.13-.11.6-.08.88-.25L3.86.77,5.21.28h.68a6.09,6.09,0,0,1,4.82,1.79c.42-.17.88.93.86,1.21l.27.66v.19a2,2,0,0,1-.11.69,3.34,3.34,0,0,0-.47,1.32s-.13,0-.16,0A.2.2,0,0,0,11,6c-.19,0-.28.17-.39.28h0a.3.3,0,0,1,0-.09h0c-.22,0-.52.2-.82.2C8,6.42,7.38,5.87,7,4.19c-.13-.69,0-.75-.8-.75-.24,0-.93,0-.93.42a.1.1,0,0,1-.06,0s-.08-.08-.08-.11a6.35,6.35,0,0,0-.69,2.2A8.37,8.37,0,0,1,4.3,8.15c0,.61-.06,1-.06,1.63,0,.33.08.66.08,1,0,0,0,.16-.08.16v.94c0,.14.06.52.06.55l0,.06c.14-.09.11-.42.11-.5,0-.25,0-.5,0-.74a.48.48,0,0,1,.16-.42V11c0,.13-.08.19-.08.3s.11.36.11.52v0s-.08.11-.11.14l.08.08v.11a.6.6,0,0,1-.22.41c0,.06,0,.33,0,.42s.14,1.07.33,1.18v-.16c0-.17-.05-.28-.05-.44s0-.17.11-.2,0,0,0,.06l0,0a2.65,2.65,0,0,1,.45,1c0,.09-.06.17-.06.25s.69.94.94.94a20,20,0,0,0,1.79-2.34,2.57,2.57,0,0,1,1.26-.8s0,.08-.05.11h.05c.09,0,.28-.17.39-.19a1.67,1.67,0,0,1,.91-.14c.25,0,.33.11.55.14h.27c.12,0,.33.41.36.52s.39.3.47.41.3.58.47.83a.34.34,0,0,1,.08.14s-.08.22-.08.24a2.46,2.46,0,0,1,0,.47c0,.17-.22.28-.25.44s-.33,1.3-.52,1.3-.06-.06-.2-.06-.3.44-.41.61l-.41.52c-.61.66-.77.61-1.68,1,0,0-.17.11-.19.11s-.14.11-.17.11S8.62,19,8.62,19a3.73,3.73,0,0,0-.74.28c-.11.08,0,.16-.2.16s-.13,0-.16-.11a8.29,8.29,0,0,1-.85.06H6.55v0H7.3v.06l-.91,0a1.58,1.58,0,0,0-.14-.16s-.19-.06-.22-.06l-.55,0C5.48,19.44,5.59,19.44,5.59,19.55Zm-2.73-9v-.3s0,0,0,.08A.82.82,0,0,0,2.86,10.52ZM5,16.94c.17.22.47.22.77.22a2,2,0,0,0,1-.11c-.23,0-.45-.11-.64-.14s-.91-.14-1-.25l-.08.11A3.82,3.82,0,0,1,4.46,16c.08-.14-.25-.28-.16-.44a13.57,13.57,0,0,1-.64-2A10.59,10.59,0,0,1,3.58,12H3.5c-.08,0-.06.13-.11.13l-.06,0a11.21,11.21,0,0,0-.3-1.9v.13c0,.75.25,1.44.25,2.12v.09a.6.6,0,0,1-.09-.28c0-.25-.22-1.32-.27-1.54l-.06-.08,0,0v0A6.85,6.85,0,0,0,3,12.59c-.06,0-.06.08-.06.16a5.43,5.43,0,0,0,.75,2.34V15s0,0,0,0a.36.36,0,0,0,.06.11s-.06.06-.06.06l0,0c0,.11.19.11.11.24l.3.42s0,.08,0,.11S4.9,16.77,5,16.94ZM3.22,18.32h0a.15.15,0,0,0-.14-.14C3.11,18.26,3.14,18.32,3.22,18.32Zm.11-7.39V10.8a.1.1,0,0,0-.05.08S3.33,10.93,3.33,10.93Zm0,.2c.06,0,.06,0,0,0S3.3,11.15,3.33,11.13Zm.09.71V11.6c0-.09,0-.28-.09-.34v.17A.76.76,0,0,0,3.42,11.84Zm.77,2.67.22.22v-.24s.19,0,.19-.09-.19-.44-.25-.6c-.16-.63-.22-1.3-.33-1.93,0,0,0-.44,0-.52l-.08-.06a2.39,2.39,0,0,0-.05-.88v0a0,0,0,0,0,0,0c-.11.11-.08.39-.08.5,0,.82.16,1.68.16,2.5H3.86A1.48,1.48,0,0,0,4.19,14.51Zm0,.53a0,0,0,1,0,0-.08A0,0,0,0,0,4.24,15Zm.33.49v-.08A.61.61,0,0,0,4.3,15v.11C4.3,15.29,4.35,15.56,4.57,15.53Zm-.22.5a0,0,0,0,1,0-.08A0,0,0,1,1,4.35,16Zm.06.39s0-.06,0-.06S4.35,16.44,4.41,16.42Zm.08-2s0-.08,0-.08S4.57,14.46,4.49,14.46Zm.08-1.79c-.08,0-.08-.08,0-.08S4.6,12.67,4.57,12.67Zm0,.69a.06.06,0,1,1,0-.11S4.6,13.36,4.57,13.36Zm.06-.47s0,.22,0,.28l0,.05v-.33ZM4.82,5.4a0,0,0,1,1,0-.08A0,0,0,1,1,4.82,5.4Zm.39,11.21c0-.14-.2-.14-.31-.14C4.9,16.64,5.09,16.61,5.21,16.61Zm-.06.22.08.11h0a.1.1,0,0,1-.06,0s0,0,0-.05Zm.72,2.7c-.06,0,.38,0,.33,0A.91.91,0,0,1,5.87,19.53ZM6.14,15s0-.06,0-.06S6.17,15,6.14,15Zm.25,4.27a7.5,7.5,0,0,0,.85,0c-.08-.14-.11-.17-.22-.17s-.49.09-.74.09l0,.08S6.39,19.31,6.39,19.31Zm.39-2.48c0,.05,0,.05,0,0A0,0,0,0,0,6.78,16.83Zm.46.38H7.3s.11,0,.11-.08v0A.82.82,0,0,0,7.24,17.21Zm.33-.08v0c.06,0,.17,0,.17-.11S7.57,17.05,7.57,17.13Zm0-1.54v0a.28.28,0,0,0,.17-.25C7.68,15.42,7.6,15.48,7.6,15.59Zm.14,3.83s0-.11,0-.11A.06.06,0,1,0,7.74,19.42Zm0-5.73v0s0,0,.05,0a.92.92,0,0,0,.36-.47C8,13.22,7.77,13.5,7.77,13.69Zm.35,3.22c.09,0,.14-.08.2-.14H8.24A.13.13,0,0,0,8.12,16.91Zm.56-4h.11v-.08C8.73,12.81,8.68,12.83,8.68,12.89ZM8.81,1c.09,0,.09-.11,0-.11S8.79,1,8.81,1Zm1.6,5h.06V5.92Z"/><path class="cls-1" d="M13.22,13.14c0-.06,0-1.16,0-1.6,0-1.1.11-2.4.08-3.47.2-2.48.36-5.15.31-7.66a1.19,1.19,0,0,1,.47-.36,7.47,7.47,0,0,0,2.36.17c1.3,0,2.57-.14,3.86-.14.85,0,1.73.09,2.56.14l2.23.19c.86.09,1.08.94,1.08,1.66,0,.35-.09,2.53-.8,2.53h-5a8.19,8.19,0,0,0-1.41-.06,12.74,12.74,0,0,1-1.38.06,13.7,13.7,0,0,0-.19,1.76v0l0,.05,0,0c0,.11-.05.53-.05.64s-.09.27-.06.33a1,1,0,0,0,.11.3c.14.08.22,0,.39,0L21.21,8h1.15a6,6,0,0,1,.77.09A2.35,2.35,0,0,1,23.8,10a2.07,2.07,0,0,1-.75,1.71c-.05,0-.16.11-.16.19l-5.4-.11-.14,0v.11c0,.93,0,1.92.08,2.89a2.62,2.62,0,0,1,.06.36l.33,0h2.56l.55.09c.19,0,1.71,0,1.9,0,.83,0,2.21-.28,2.62.71.08.17.25.64.27.69V17c0,.44-.16,2.25-.85,2.39H23.58c-2.1,0-4.16-.22-6.23-.22-.85,0-1.68.36-2.53.36h-.06a6.56,6.56,0,0,0-.66-.14c-.22-.08-.58-.25-.58-.52C13.47,18,13.25,14,13.22,13.14Zm.3-5.4c.06,0,.06-.11,0-.11S13.47,7.74,13.52,7.74Zm1.77-4.9a.32.32,0,0,0,.08-.25.77.77,0,0,0-.14-.39v.17A1.29,1.29,0,0,0,15.29,2.84Zm2,7.68h.05V10.3H17.3ZM17.49,18h.16v-.19C17.54,17.82,17.49,17.87,17.49,18Zm.41-7.08c.06,0,.06-.11,0-.11S17.87,10.93,17.9,10.93Zm1.32-7.38c.06,0,.06-.11,0-.11S19.17,3.55,19.22,3.55Zm.53,13.09s.27.05.35.05.2,0,.2-.11h-.55ZM20,1.21s0-.05,0-.08A0,0,0,1,0,20,1.21Zm1.4,1.63c.06,0,.06-.11,0-.11S21.32,2.84,21.37,2.84Zm1,.13c0,.06.09.06.11,0S22.36,3,22.36,3ZM23,3h.52V3h-.58ZM23.8,18h.11c.46,0,.88,0,.88-.58-.2,0-.36.3-.44.41h-.53s-.19,0-.22.08S23.8,18,23.8,18Zm.82-1.21c0-.14-.16-.14-.27-.17a2.9,2.9,0,0,0-.39-.06l0,.06A1.22,1.22,0,0,0,24.62,16.75Z"/><path class="cls-1" d="M27.18,19.2a1.27,1.27,0,0,1-.71-.22,15.92,15.92,0,0,1-.28-2.29c0-.17,0-1.38,0-1.54a1.17,1.17,0,0,0-.05-.3L25.89,11s0-.33,0-.41c0-1.41.14-2.84.19-4.24V6.14c0-1,.06-3.22.06-3.25s.11-1.21.14-1.51c0,0,.08-.42.11-.47s0-.25,0-.25C26.47.41,27.6.41,28.2.33l1.52.33c.22,0,.3.39.35.55a3.34,3.34,0,0,1,.22,1.27l.28,3.39v0c0,.61-.08,1.16-.08,1.77v.69l.08.11a12.68,12.68,0,0,0,0,1.51c0,.08,0,.61,0,.69v.05c0,.31-.06.58-.06.91,0,.06,0,.28,0,.36a1.07,1.07,0,0,1,.08.41l.17,3.17h.08c.63,0,1.21,0,1.82,0h.82l.78,0c.33,0,.57-.05.77.17.08,0,.36.35.44.41,0,.25.08.28.22.5a2.36,2.36,0,0,1,.14.9c0,.42-.25,1.24-.8,1.24-.2,0-.36-.08-.53-.08h-.13l-2.21.39Zm1.38-6.56a3.51,3.51,0,0,0-.08.94h.08a1,1,0,0,1,.11-.19s0-.17,0-.17h.14c0-.08-.06-.08-.11-.08V13h.11l0-.06-.05-.08v0l.11-.11v-.94l-.06,0c-.14,0-.05.33-.14.46.09,0,.09.06.09.11S28.59,12.48,28.56,12.64Zm.05,1.24h.09a.19.19,0,0,0-.09-.14Zm.22-12.45a.29.29,0,0,0-.13-.27l0,.05v0C28.67,1.35,28.72,1.43,28.83,1.43Zm-.16,12.15c0,.05,0,.05,0,0S28.67,13.55,28.67,13.58Z"/><path class="cls-1" d="M35.86,13.14c0-.06,0-1.16,0-1.6,0-1.1.11-2.4.08-3.47.19-2.48.36-5.15.3-7.66a1.35,1.35,0,0,1,.47-.36,7.55,7.55,0,0,0,2.37.17c1.3,0,2.56-.14,3.86-.14.85,0,1.73.09,2.56.14L47.7.41c.85.09,1.07.94,1.07,1.66,0,.35-.08,2.53-.79,2.53H43a8.12,8.12,0,0,0-1.4-.06,12.74,12.74,0,0,1-1.38.06A13.7,13.7,0,0,0,40,6.36v0l0,.05,0,0c0,.11-.06.53-.06.64s-.08.27,0,.33a1,1,0,0,0,.11.3c.14.08.22,0,.38,0L43.84,8H45a6,6,0,0,1,.77.09,2.38,2.38,0,0,1,.66,1.9,2.09,2.09,0,0,1-.74,1.71c-.06,0-.17.11-.17.19l-5.39-.11-.14,0v.11c0,.93,0,1.92.08,2.89a2.62,2.62,0,0,1,.06.36l.33,0H43l.55.09c.19,0,1.71,0,1.9,0,.83,0,2.2-.28,2.62.71.08.17.24.64.27.69V17c0,.44-.16,2.25-.85,2.39h-1.3c-2.09,0-4.16-.22-6.22-.22-.86,0-1.68.36-2.54.36H37.4a6.56,6.56,0,0,0-.66-.14c-.22-.08-.58-.25-.58-.52C36.1,18,35.88,14,35.86,13.14Zm.3-5.4c.05,0,.05-.11,0-.11S36.1,7.74,36.16,7.74Zm1.76-4.9A.32.32,0,0,0,38,2.59a.75.75,0,0,0-.13-.39v.17A1.54,1.54,0,0,0,37.92,2.84Zm2,7.68H40V10.3h-.06Zm.2,7.49h.16v-.19C40.18,17.82,40.13,17.87,40.13,18Zm.41-7.08c.05,0,.05-.11,0-.11S40.51,10.93,40.54,10.93Zm1.32-7.38c.06,0,.06-.11,0-.11S41.81,3.55,41.86,3.55Zm.52,13.09s.28.05.36.05.2,0,.2-.11h-.56ZM42.6,1.21s0-.05,0-.08A0,0,0,0,0,42.6,1.21ZM44,2.84c.05,0,.05-.11,0-.11S44,2.84,44,2.84ZM45,3c0,.06.08.06.11,0S45,3,45,3Zm.63.06h.53V3h-.58ZM46.43,18h.11c.47,0,.88,0,.88-.58-.19,0-.35.3-.44.41h-.52s-.19,0-.22.08S46.43,18,46.43,18Zm.83-1.21c0-.14-.17-.14-.28-.17a2.8,2.8,0,0,0-.38-.06l0,.06A1.2,1.2,0,0,0,47.26,16.75Z"/><path class="cls-1" d="M50,19.17c-.19,0-.28-.28-.28-.44s0-.08,0-.14a23.38,23.38,0,0,1-.31-2.75c0-.06.06-.58.06-.66v-.56c0-1.9-.09-3.8-.09-5.67V6.36c.06-.47.17-2.53.2-3V1a.33.33,0,0,1-.17-.27c0-.17.31-.28.44-.31S51,.22,51.17.19c.8-.11,1.65,0,2.48-.19h2.64a10.64,10.64,0,0,0,1.38.08,5.1,5.1,0,0,1,4.74,3.56,6.9,6.9,0,0,1,.25,2v.25a7.93,7.93,0,0,1-.17.85A3.28,3.28,0,0,1,59.65,8.9c2.26,1.48,2.65,2.09,2.76,4.79.19,5.2-6.67,6.06-11.29,5.75-.14-.11-.12.11-.25.11s-.2-.11-.25-.22Zm1.4-5.56V13.5l0,.05ZM53.46,15s0,.09,0,.11,0,.06.11.06c5.64.91,7-3.55,2.94-4-.33,0-2.39-.08-3,0a.28.28,0,0,0-.22.16s0,.19,0,.25C53.21,12.7,53.37,13.83,53.46,15Zm-.17-13.3h.06V1.62h-.06Zm1,5.34a1.29,1.29,0,0,0,.2.09,3.56,3.56,0,0,0,1.18-.25c.5.08.94-.25,1.43-.25a1.42,1.42,0,0,1,.42.11.08.08,0,0,1,0,0V6.61s-.11-.06-.13-.06a6.67,6.67,0,0,0,1.07-.19V6.25h-.19c.82,0,.91-1.15.6-1.87-.08-.22-.41-.22-.57-.36s-.09-.16-.17-.22a6.08,6.08,0,0,0-1.76-.47l-.25.06H56c-.06,0-.09,0-.09-.11h-.85l0-.06s-.24.06-.3.06h0l0-.06s-.14.06-.17.06h-.25s0-.06-.08-.06l-.08.06s-.14-.06-.17-.06h-.41l0,.06c0,1.15-.09,2.31-.09,3.47,0,.22.25,0,.33.22Zm-.71.91h.3a4.16,4.16,0,0,0,.61,0V7.82a.07.07,0,0,0-.08-.08,7.74,7.74,0,0,0-.8.08h-.06V7.9Zm1-1.07,0,0,0,0s0,0-.06,0Zm.08.93c.14,0,.25,0,.25-.13V7.6l-.25.14ZM55,3.39a0,0,0,1,1,.08,0S55,3.42,55,3.39Zm.41-1.82c.06,0,.06,0,0-.06S55.36,1.57,55.38,1.57Zm0,5.15s.2,0,.17,0A.17.17,0,0,1,55.38,6.72Zm.25-5.15h.08V1.51h-.08Zm.88.16a.55.55,0,0,0,.17-.11V1.57s-.08-.08-.11-.11h-.06c-.16,0-.58.05-.58.05l0,.06A4.15,4.15,0,0,0,56.51,1.73Zm.42,4.71s.13,0,.13,0A.07.07,0,0,1,56.93,6.44Zm.74.17v.06s0,0,0-.06V6.55Zm.16-.33s.14,0,.12,0S57.83,6.33,57.83,6.28Zm.12.33h0V6.55h0Zm1.54-3v0c0-.14-.28-.33-.39-.39v.06Zm.3,3.71h.06V7.24A.15.15,0,0,0,59.79,7.35Z"/><path class="cls-1" d="M68.27,13.83c-.16-.25-.38-.69-.58-1.05h-.22c0,.58.06,1.16.06,1.73a5.76,5.76,0,0,1-.06,1v2.84c0,.19.17.3.17.52,0,.39-.69.47-1,.5h0c-.16,0-.69.11-.77.11l-.5,0c-.49,0-1.93,0-2.06-.75L63.23.69s.08-.06.11-.06c.22-.08.39-.33.44-.33h0l.28.06c.27,0,.52-.17.82-.17.09,0,.22,0,.3.06.69-.06,1.3.11,2,.11h1.21c.67,0,1.35.16,2,.16C73.86.61,75.16,1.79,76,3.8a8.5,8.5,0,0,1,.85,3.55A4.67,4.67,0,0,1,76.15,10c-.19.27-.22.55-.41.82a3.65,3.65,0,0,1-.61.47,6.22,6.22,0,0,1-1.76,1c-.08,0-.39.08-.64.17a9.64,9.64,0,0,1,.44,1,21.06,21.06,0,0,0,1.27,2.45c.19.25.44.5.61.74a6.13,6.13,0,0,0,.3.64l.25.22a4.54,4.54,0,0,1,.63,1.57c0,.16-1.54.38-1.6.38A15.46,15.46,0,0,1,71.41,19s0-.19,0-.22l-.25-.25a10.31,10.31,0,0,1-1.19-1.79s-.08-.22-.08-.25-.25-.49-.25-.52l-1.15-1.82A.82.82,0,0,0,68.27,13.83ZM64.14,9.09a.28.28,0,0,0,0-.22S64.11,9.12,64.14,9.09Zm0-.41v.08c.08,0,.06-.17.06-.19V8.46A.34.34,0,0,0,64.14,8.68Zm0,10s0,0,.06,0l.27,0c.08,0,.83,0,.83-.14a7,7,0,0,1-.77-.13c-.09,0-.39.08-.39.19ZM64.2,8.29s0-.08,0-.11S64.17,8.32,64.2,8.29Zm0-6v.25A1.73,1.73,0,0,0,64.31,2V1.9C64.22,2,64.25,2.18,64.25,2.31Zm.06,15.29a0,0,0,0,0,0,0S64.28,17.63,64.31,17.6ZM66,10l.11-.11H66Zm1.62-.72c3.61.44,5.1.5,4.38-3.47-.25-1.4-2.09-1.57-3.83-1.38-.19,0-.38,0-.55.06Zm6.09-1c.06,0,.06-.11,0-.11S73.62,8.23,73.67,8.23Zm.39-.05s0-.06,0-.06S74,8.18,74.06,8.18Zm.11-4.43h0V3.69h0Zm.11.08s0,0,0,0v0l0,0Zm.33.63V4.38a.49.49,0,0,0-.17-.3v0A.36.36,0,0,0,74.61,4.46Zm.08,5.32s0-.06,0-.06S74.66,9.78,74.69,9.78Zm.39-4.19s0,0,0,0S75.05,5.62,75.08,5.59Zm.6,2.2V7.63c0-.17,0-.5-.16-.58v.08C75.52,7.27,75.52,7.66,75.68,7.79Zm-.16.64s0-.08,0-.14V8.23h0Zm.11-.36h.05V8h-.05Z"/><path class="cls-1" d="M76.84,13.14c0-.06,0-1.16,0-1.6,0-1.1.11-2.4.08-3.47.19-2.48.36-5.15.31-7.66a1.23,1.23,0,0,1,.46-.36A7.55,7.55,0,0,0,80,.22c1.3,0,2.56-.14,3.86-.14.85,0,1.73.09,2.56.14l2.23.19c.85.09,1.07.94,1.07,1.66,0,.35-.08,2.53-.79,2.53h-5a8.12,8.12,0,0,0-1.4-.06,12.74,12.74,0,0,1-1.38.06A13.7,13.7,0,0,0,81,6.36v0l0,.05,0,0c0,.11-.06.53-.06.64s-.08.27,0,.33a1,1,0,0,0,.11.3c.14.08.22,0,.38,0L84.82,8H86a6,6,0,0,1,.77.09,2.38,2.38,0,0,1,.66,1.9,2.09,2.09,0,0,1-.74,1.71c-.06,0-.17.11-.17.19l-5.39-.11-.14,0v.11c0,.93,0,1.92.08,2.89a2.62,2.62,0,0,1,.06.36l.33,0H84l.55.09c.19,0,1.71,0,1.9,0,.83,0,2.2-.28,2.62.71.08.17.24.64.27.69V17c0,.44-.16,2.25-.85,2.39h-1.3c-2.09,0-4.16-.22-6.22-.22-.86,0-1.68.36-2.54.36h-.05a6.56,6.56,0,0,0-.66-.14c-.22-.08-.58-.25-.58-.52C77.08,18,76.86,14,76.84,13.14Zm.3-5.4c.06,0,.06-.11,0-.11S77.08,7.74,77.14,7.74Zm1.76-4.9A.3.3,0,0,0,79,2.59a.77.77,0,0,0-.14-.39v.17A1.54,1.54,0,0,0,78.9,2.84Zm2,7.68H81V10.3h-.06Zm.2,7.49h.16v-.19C81.16,17.82,81.11,17.87,81.11,18Zm.41-7.08s0-.11,0-.11S81.49,10.93,81.52,10.93Zm1.32-7.38c.06,0,.06-.11,0-.11S82.79,3.55,82.84,3.55Zm.52,13.09s.28.05.36.05.2,0,.2-.11h-.56Zm.22-15.43s0-.05,0-.08A0,0,0,0,0,83.58,1.21ZM85,2.84c.05,0,.05-.11,0-.11S84.93,2.84,85,2.84ZM86,3c0,.06.08.06.11,0S86,3,86,3Zm.63.06h.53V3h-.58ZM87.41,18h.11c.47,0,.88,0,.88-.58-.19,0-.35.3-.44.41h-.52s-.19,0-.22.08S87.41,18,87.41,18Zm.83-1.21c0-.14-.17-.14-.28-.17a2.8,2.8,0,0,0-.38-.06l0,.06A1.2,1.2,0,0,0,88.24,16.75Z"/><path class="cls-1" d="M90.3,14V7.49a36.31,36.31,0,0,0,.11-4.43c0-.25.06-1.24.06-1.44,0-.35.19-.71.22-1.07A1.76,1.76,0,0,1,92,.22l.08,0h.47c.55,0,1.13,0,1.68,0a.54.54,0,0,1,.11.06l.63.22c.17.05.41,0,.58.16.36.28.41.83.69,1.19a1,1,0,0,1,.19.22c.06,0,.19.24.22.3.8,1.49,1.43,3,2.2,4.52l1.19,3.6s.11.28.19.28h0c.11-.41.41-.8.52-1.21s.77-1.6.91-1.9l.77-2.21c.17-.44.44-.82.64-1.29a8,8,0,0,1,.46-1.1s0-.14,0-.17c.11-.19.47-.93.55-1A3.4,3.4,0,0,1,106.31.41h1a10.15,10.15,0,0,1,2,.14,3.17,3.17,0,0,0,.33.11l.33,0s.11.11.13.11,0,0,.06,0c0,.16.14.16.14.3s-.06.38-.06.6.06.42.06.64a.7.7,0,0,1-.06.33v.6c0,.5.06,1,.06,1.52,0,.3-.06.58-.06.88a1.86,1.86,0,0,0,.14,1l.14,1.07v.47c0,.11-.06,1.13-.06,1.24,0,.91.14,1.84.14,2.78,0,.66,0,1.32,0,2v.61a1.65,1.65,0,0,1,.09.66,4,4,0,0,1-.09,1v1.68c0,.55-1.68.69-2,.69s-2.34,0-2.23-.77c0-1.54-.11-3.06-.22-4.57-.14-1.82-.11-3.66-.25-5.51h0c-.17,0-.09.22-.12.28-.08.33-.44.49-.52.79a10.17,10.17,0,0,1-.41,1.11c-.11.35-.41.74-.28.24h-.05c.08.11-.55,1.33-1.19,3,0,0,0,.11,0,.14a2.45,2.45,0,0,0-.28.94c-.11.36-.27.71-.38,1.07a.64.64,0,0,0,0,.22v.41a1.18,1.18,0,0,1-.17.2c0,.11,0,.25-.11.33a1.77,1.77,0,0,1-1.4.63c-.58,0-1-.08-1.63-.05,0,0-.13-.06-.16-.06-.66-.16-.83-.66-1.16-1.27-.22-.44-1.21-2.56-1.4-3a10.32,10.32,0,0,1-.47-1.26v0a.94.94,0,0,1-.06-.28c0-.05-.08-.66-.11-.71A8,8,0,0,0,95.12,9h0c0,.16-.09.44.11.58v.8c0,.68-.09,1.35-.09,2s.09,1.07.09,1.62v1.08a.22.22,0,0,0-.09.22c0,.46.17,1,.17,1.43,0,.11-.08.85-.08,1l0,.08c0,.31.16.58.16.86,0,.11,0,.11-.22.22a3.94,3.94,0,0,1-2.06.41c-.64,0-2-.22-2.31-1a.48.48,0,0,1-.06-.14c-.06-.41-.14-.77-.22-1.18A13.67,13.67,0,0,0,90.3,14Zm9.4,2.51,0,0s0,0-.11,0S99.64,16.5,99.7,16.5Zm.57-.08c.06,0,.06-.12,0-.12S100.22,16.42,100.27,16.42Zm.11-.12s0,.06.06.06a.4.4,0,0,0,.14-.33v0a.39.39,0,0,0-.2.28Zm.2-.41,0-.05h0Zm4-5.51h.08V10.3C104.63,10.3,104.6,10.36,104.6,10.38Zm.44-1s0-.11,0-.11S105,9.34,105,9.34Zm0-.11a0,0,0,1,0,0-.09S105,9.23,105.09,9.23Zm.11-.36s0-.11,0-.11S105.15,8.87,105.2,8.87Zm.09-.3s0-.06,0-.09S105.26,8.57,105.29,8.57Zm.13.57h0l0,.14s-.08-.08-.08-.11Zm0-.93c.06,0,.06-.14,0-.14S105.42,8.21,105.45,8.21Zm.06.25s0-.11,0-.11S105.45,8.46,105.51,8.46ZM105.7,8s0-.11,0-.11S105.67,8,105.7,8Zm0-.11c.09,0,.09-.11,0-.11S105.7,7.88,105.75,7.88Zm1.77-.11a0,0,0,1,0,0,0C107.46,7.71,107.46,7.77,107.52,7.77Zm0,.46s0-.08,0-.08S107.46,8.23,107.52,8.23Zm0,.34V8.46s0-.09,0-.11V8.4A.37.37,0,0,0,107.57,8.57Zm0,1.79s0-.06,0-.06S107.57,10.36,107.6,10.36Z"/><path class="cls-1" d="M116.58,19a7.12,7.12,0,0,1-2.84-1.22c-1.93-1.7-2.48-4.51-2.48-7,0-.09,0-.28,0-.31.11-1.15.25-2.42.47-3.55-.09-.25.38-1.1.47-1.35a8.45,8.45,0,0,1,1.4-3.41c.17-.17.85-.86,1-1a13.36,13.36,0,0,0,1.32-.77c.11,0,.14,0,.25-.06a8.52,8.52,0,0,1,2-.28c2.65,0,4.8,1,5.82,3.45a4.45,4.45,0,0,1,.49.82.71.71,0,0,0,.06.2c0,.3.11.69.19,1a2.12,2.12,0,0,1,.22.58,31.37,31.37,0,0,1,.33,3.25.74.74,0,0,1-.11.41v.36c0,.33,0,.66,0,1a12.72,12.72,0,0,1-.44,2.45,13.83,13.83,0,0,1-.77,2,4.55,4.55,0,0,1-.61,1.32,6,6,0,0,1-4.79,2.23h-.14c-.25,0-1.46-.05-1.73-.08C116.69,19,116.61,19,116.58,19ZM113.74,1.62s.08,0,.06,0S113.77,1.68,113.74,1.62Zm2.09,10.69c.31,1.24,1.11,3.31,2.62,3.31a2.22,2.22,0,0,0,.74-.2,1.77,1.77,0,0,0,1.24-1.51c0-.08,0-.14.06-.22l.22-.77a6.85,6.85,0,0,0,.05-1.27,19.45,19.45,0,0,0-.46-5,5.19,5.19,0,0,0-1.44-2.51,1.06,1.06,0,0,0-.57-.11c-1.57,0-2.21,1.6-2.57,2.84-.11.44-.11.94-.24,1.38,0,0-.11,0-.11.08v.17c0,.68.19,1.37.13,2.09A8.08,8.08,0,0,1,115.83,12.31Zm.75,5.84h0l0,0Zm.33-2.95H117a.24.24,0,0,0-.22-.13C116.77,15.18,116.83,15.2,116.91,15.2Zm.14.17h0l0-.06Zm3.36,2.34s0-.08,0-.08A0,0,0,1,0,120.41,17.71Zm.3-.25s0,0,0,.06h0a.1.1,0,0,0,0-.06v0ZM123,5.1v0c0-.06,0-.17-.11-.17A.27.27,0,0,0,123,5.1Zm.19,8h.06v-.11A.15.15,0,0,0,123.21,13.05Z"/><path class="cls-1" d="M128.86,18.78a1,1,0,0,1-.3-.05,2,2,0,0,1-.44-.19,4,4,0,0,1-2.43-4c0-1.57.25-2.15,2-2.15A2.56,2.56,0,0,1,130.4,14v.22c-.05.86-.11,1.66.8,2a1.6,1.6,0,0,0,.58.17c.77,0,1.16-1.38,1.16-2a3.56,3.56,0,0,0-2.32-3.19c-2.81-1.27-5.4-2.34-5.4-5.37a9.22,9.22,0,0,1,.31-1.77c.63-2.28,2.45-3.22,4.71-3.8a5.26,5.26,0,0,0,1-.11c3,0,5.73.88,5.73,4.05v0c-.17.58-.14,2-.83,2.2a1.22,1.22,0,0,1-.33,0s-.36.11-.41.11h-.19a2.94,2.94,0,0,1-2.84-2.72c0-.2-.06-.33-1.21-.67H131l.22.17h0c-.17,0-.31-.11-.53-.11a2,2,0,0,0-.8.33,1.74,1.74,0,0,0,.42,3.17,23.52,23.52,0,0,1,4.9,2.7,5.23,5.23,0,0,1,2.15,4.68,11.44,11.44,0,0,1-.5,1.76,4.76,4.76,0,0,1-.6,1c-.17.25-.28.55-.44.8a4.48,4.48,0,0,1-4,1.74c-.6,0-1.26-.31-1.87-.25Zm-.47-5.34v-.11a1.39,1.39,0,0,0-.38-.14h-.17A.79.79,0,0,0,128.39,13.44Zm.53-6.11H129v0h-.05Zm.35.11a3.1,3.1,0,0,0,.28.3,1.38,1.38,0,0,0,.27.27V8l-.22-.25S129.3,7.49,129.27,7.44Zm.91-.2c.06,0,.06-.11,0-.11S130.13,7.24,130.18,7.24ZM131.7,19c.05,0,.05-.11,0-.11S131.64,19,131.7,19Zm.16-.06H132v-.05h-.11Zm3-13.11c.06,0,.14,0,.14-.11v0a4.46,4.46,0,0,0-.63-.28C134.4,5.56,134.7,5.78,134.89,5.78Z"/></g></g></svg>