<svg xmlns="http://www.w3.org/2000/svg" xmlns:xlink="http://www.w3.org/1999/xlink" viewBox="0 0 299.32 273.33"><defs><style>.cls-1,.cls-3{fill:none;}.cls-2{fill:#fff;}.cls-3{stroke:#333;stroke-width:0.25px;}.cls-29,.cls-3{stroke-miterlimit:10;}.cls-4{fill:#1d1d1b;}.cls-5{clip-path:url(#clip-path);}.cls-6{fill:url(#Degradado_sin_nombre_106);}.cls-7{clip-path:url(#clip-path-2);}.cls-8{fill:url(#Degradado_sin_nombre_107);}.cls-9{clip-path:url(#clip-path-3);}.cls-10{fill:url(#Degradado_sin_nombre_108);}.cls-11{clip-path:url(#clip-path-4);}.cls-12{fill:url(#Degradado_sin_nombre_109);}.cls-13{clip-path:url(#clip-path-5);}.cls-14{fill:url(#Degradado_sin_nombre_110);}.cls-15{clip-path:url(#clip-path-6);}.cls-16{fill:url(#Degradado_sin_nombre_111);}.cls-17{clip-path:url(#clip-path-7);}.cls-18{fill:url(#Degradado_sin_nombre_106-2);}.cls-19{clip-path:url(#clip-path-8);}.cls-20{fill:url(#Degradado_sin_nombre_107-2);}.cls-21{clip-path:url(#clip-path-9);}.cls-22{fill:url(#Degradado_sin_nombre_108-2);}.cls-23{clip-path:url(#clip-path-10);}.cls-24{fill:url(#Degradado_sin_nombre_109-2);}.cls-25{clip-path:url(#clip-path-11);}.cls-26{fill:url(#Degradado_sin_nombre_110-2);}.cls-27{clip-path:url(#clip-path-12);}.cls-28{fill:url(#Degradado_sin_nombre_111-2);}.cls-29{fill:#ea5b27;stroke:#fff;stroke-width:2px;}</style><clipPath id="clip-path"><path class="cls-1" d="M74.2,147.35a12,12,0,0,0,4.3,7.52c-2.15-7.91,4.25-21.1,12.16-29.21,0,0-12,7.06-15.58,15.64a11.21,11.21,0,0,0-.88,6"/></clipPath><linearGradient id="Degradado_sin_nombre_106" x1="5335.62" y1="954.65" x2="5338.29" y2="954.65" gradientTransform="translate(-26266.96 -4575.96) scale(4.94)" gradientUnits="userSpaceOnUse"><stop offset="0" stop-color="#fcca35"/><stop offset="0.58" stop-color="#fcca35"/><stop offset="0.68" stop-color="#fcd463"/><stop offset="0.83" stop-color="#fde1a3"/><stop offset="0.94" stop-color="#fdeacb"/><stop offset="1" stop-color="#fdedda"/></linearGradient><clipPath id="clip-path-2"><path class="cls-1" d="M92.4,121.48a5.86,5.86,0,0,0-4.78-3c-2.58-.06-7.36,1.65-10.64,6.63,0,0,6.65-6.43,15.42-3.61"/></clipPath><linearGradient id="Degradado_sin_nombre_107" x1="4357.38" y1="5102.18" x2="4360.04" y2="5102.18" gradientTransform="translate(-6167.72 -7200.36) scale(1.44)" gradientUnits="userSpaceOnUse"><stop offset="0" stop-color="#e84c8b"/><stop offset="0.58" stop-color="#e84c8b"/><stop offset="0.77" stop-color="#ee81ae"/><stop offset="1" stop-color="#f4bfd7"/></linearGradient><clipPath id="clip-path-3"><path class="cls-1" d="M72.17,142.73C73.58,135,82.29,127.9,91.8,122.92c0,0-11.9-1.37-18.08,7.86a8.3,8.3,0,0,0-.73,1.39c-1.65,4-1.08,9.9-.82,10.56"/></clipPath><linearGradient id="Degradado_sin_nombre_108" x1="5403.1" y1="1749.33" x2="5405.77" y2="1749.33" gradientTransform="translate(-24662.77 -7879.11) scale(4.58)" gradientUnits="userSpaceOnUse"><stop offset="0" stop-color="#ec6f35"/><stop offset="0.53" stop-color="#ec6f35"/><stop offset="0.8" stop-color="#f7a647"/><stop offset="1" stop-color="#ffd255"/></linearGradient><clipPath id="clip-path-4"><path class="cls-1" d="M78.5,154.87c-2.13-7.84,4.15-20.88,12-29a40.25,40.25,0,0,0-11.35,14.59l-.23.53c-3.71,8.92-.38,13.88-.38,13.88"/></clipPath><linearGradient id="Degradado_sin_nombre_109" x1="5323.79" y1="954.03" x2="5326.46" y2="954.03" gradientTransform="translate(-25980.3 -4531.48) scale(4.9)" gradientUnits="userSpaceOnUse"><stop offset="0" stop-color="#ffde4f"/><stop offset="0.58" stop-color="#ffde4f"/><stop offset="0.64" stop-color="#ffe266"/><stop offset="0.81" stop-color="#ffedae"/><stop offset="0.94" stop-color="#fff4dc"/><stop offset="1" stop-color="#fff7ed"/></linearGradient><clipPath id="clip-path-5"><path class="cls-1" d="M72.17,142.73C73.58,135,82.29,127.9,91.8,122.92c0,0-8.75,2.73-14,7.88a18.93,18.93,0,0,0-4.31,6.32,15.54,15.54,0,0,0-1.3,5.61"/></clipPath><linearGradient id="Degradado_sin_nombre_110" x1="5232.84" y1="947.08" x2="5235.51" y2="947.08" gradientTransform="translate(-23933.22 -4213.91) scale(4.59)" gradientUnits="userSpaceOnUse"><stop offset="0" stop-color="#f39758"/><stop offset="0.53" stop-color="#f39758"/><stop offset="0.76" stop-color="#f9c367"/><stop offset="1" stop-color="#ffec75"/></linearGradient><clipPath id="clip-path-6"><path class="cls-1" d="M77,125.09s6.65-6.43,15.42-3.61h0a11.65,11.65,0,0,0-5.58-1.54c-3.66,0-7.9,2.74-9.82,5.14A0,0,0,0,1,77,125.09Z"/></clipPath><linearGradient id="Degradado_sin_nombre_111" x1="2180.4" y1="729.81" x2="2183.07" y2="729.81" gradientTransform="translate(-3149.59 -959.63) scale(1.48)" gradientUnits="userSpaceOnUse"><stop offset="0" stop-color="#ef85a7"/><stop offset="0.58" stop-color="#ef85a7"/><stop offset="0.9" stop-color="#f7c1d5"/><stop offset="1" stop-color="#f9d4e4"/></linearGradient><clipPath id="clip-path-7"><path class="cls-1" d="M110.63,94.26a11.93,11.93,0,0,0,.26,8.66c1.81-8,13.65-16.65,24.44-20.11,0,0-13.92.62-21.09,6.52a11.1,11.1,0,0,0-3.61,4.93"/></clipPath><linearGradient id="Degradado_sin_nombre_106-2" x1="5302.21" y1="915.81" x2="5304.88" y2="915.81" gradientTransform="translate(-26062.22 -4433.18) scale(4.94)" xlink:href="#Degradado_sin_nombre_106"/><clipPath id="clip-path-8"><path class="cls-1" d="M138.82,79.94A5.84,5.84,0,0,0,136,75c-2.25-1.26-7.27-2-12.51.87,0,0,8.9-2.57,15.32,4"/></clipPath><linearGradient id="Degradado_sin_nombre_107-2" x1="4186.94" y1="5147.22" x2="4189.61" y2="5147.22" gradientTransform="translate(7519.3 -5930.97) rotate(90) scale(1.44)" xlink:href="#Degradado_sin_nombre_107"/><clipPath id="clip-path-9"><path class="cls-1" d="M111,89.23c4.86-6.17,15.88-8.35,26.62-8.3,0,0-9.87-6.79-19.66-1.53a8.67,8.67,0,0,0-1.29.88c-3.32,2.73-5.6,8.24-5.67,9"/></clipPath><linearGradient id="Degradado_sin_nombre_108-2" x1="5350.21" y1="1733.36" x2="5352.88" y2="1733.36" gradientTransform="translate(-24377.76 -7854.38) scale(4.58)" xlink:href="#Degradado_sin_nombre_108"/><clipPath id="clip-path-10"><path class="cls-1" d="M110.89,102.92c1.8-7.92,13.45-16.5,24.16-20a40.31,40.31,0,0,0-16.86,7.56l-.46.37c-7.45,6.13-6.84,12.08-6.84,12.08"/></clipPath><linearGradient id="Degradado_sin_nombre_109-2" x1="5290.09" y1="914.86" x2="5292.76" y2="914.86" gradientTransform="translate(-25776.1 -4388.08) scale(4.9)" xlink:href="#Degradado_sin_nombre_109"/><clipPath id="clip-path-11"><path class="cls-1" d="M111,89.23c4.86-6.17,15.88-8.35,26.62-8.3,0,0-9-1.7-16.08.39a19.08,19.08,0,0,0-6.77,3.56A15.58,15.58,0,0,0,111,89.23"/></clipPath><linearGradient id="Degradado_sin_nombre_110-2" x1="5196.89" y1="905.28" x2="5199.56" y2="905.28" gradientTransform="translate(-23725.66 -4070.18) scale(4.59)" xlink:href="#Degradado_sin_nombre_110"/><clipPath id="clip-path-12"><path class="cls-1" d="M123.5,75.9s8.9-2.57,15.32,4h0a11.73,11.73,0,0,0-4.21-4c-3.23-1.71-8.26-1.28-11.08-.06Z"/></clipPath><linearGradient id="Degradado_sin_nombre_111-2" x1="2069.18" y1="600.53" x2="2071.85" y2="600.53" gradientTransform="translate(-2938.05 -813.15) scale(1.48)" xlink:href="#Degradado_sin_nombre_111"/></defs><title>Recurso 11</title><g id="Capa_2" data-name="Capa 2"><g id="Capa_1-2" data-name="Capa 1"><path class="cls-2" d="M173.59,123.07,139.11,205.9A18.47,18.47,0,0,1,115,215.85L11.5,172.77a18.46,18.46,0,0,1-9.95-24.14L36,65.8a18.47,18.47,0,0,1,24.15-9.95L163.65,98.93a18.46,18.46,0,0,1,9.94,24.14"/><rect class="cls-3" x="24.25" y="61.35" width="126.65" height="149.01" rx="18.46" ry="18.46" transform="translate(-71.5 164.48) rotate(-67.4)"/><polygon class="cls-4" points="77.81 176.55 80.78 177.79 81.99 174.88 82.63 175.15 81.42 178.05 85.28 179.66 84.98 180.39 76.84 177 78.41 173.23 79.07 173.51 77.81 176.55"/><path class="cls-4" d="M88.72,171.4l-1.06-.4a2.29,2.29,0,0,1,.37,2.45c-.65,1.57-1.93,1.56-3.33,1L81,172.88l.28-.66,3.61,1.5c1,.43,2,.61,2.55-.62s-.42-2.27-1.58-2.75L82.61,169l.27-.66,4.63,1.93a15,15,0,0,0,1.46.53Z"/><path class="cls-4" d="M91.34,165.11l-3.61-1.51c-1-.42-2-.58-2.54.65s.4,2.27,1.56,2.75L90,168.35l-.27.66-4.63-1.92a15,15,0,0,0-1.46-.54l.25-.6,1.08.41a2.29,2.29,0,0,1-.37-2.46c.65-1.57,1.92-1.58,3.32-1l3.71,1.55Z"/><path class="cls-4" d="M94.08,158.54l-1-.33a2.18,2.18,0,0,1,.36,2.37c-.75,1.79-2.66,1.77-4.21,1.12s-2.86-2-2.1-3.79A2.18,2.18,0,0,1,89,156.56L85.24,155l.27-.65,6.81,2.83c.64.27,1.32.52,2,.77Zm-6.35-.39c-.61,1.45.55,2.34,1.75,2.84s2.71.69,3.3-.74-.67-2.42-1.79-2.89-2.71-.54-3.26.79"/><path class="cls-4" d="M96.49,152.75l-1-.37a2.24,2.24,0,0,1,.34,2.34A1.86,1.86,0,0,1,93.3,156c-1.55-.64-1.49-2.33-.69-4.24l.17-.41-.32-.13c-.95-.4-1.71-.34-2.14.7a3.16,3.16,0,0,0-.24,1.92l-.71-.22a5,5,0,0,1,.32-1.94c.61-1.48,1.67-1.7,3.09-1.1l2.69,1.11a10.31,10.31,0,0,0,1.29.45Zm-3.13-1.19-.06.16c-.49,1.16-1.13,2.94.29,3.53a1.23,1.23,0,0,0,1.64-.84c.56-1.36-.29-2.19-1.49-2.69Z"/><path class="cls-4" d="M98.66,147.93c-.77,1.83-2.66,2.2-4.36,1.49a3.12,3.12,0,0,1-1.93-4.21,4.68,4.68,0,0,1,.85-1.31l.65.35A3.45,3.45,0,0,0,93,145.4a2.4,2.4,0,0,0,1.56,3.3,2.5,2.5,0,0,0,3.47-1.14,4.26,4.26,0,0,0,.29-1.45l.7.22a4.94,4.94,0,0,1-.39,1.6"/><path class="cls-4" d="M91.25,141.5l.28-.66,1,.4-.27.66Zm2.4,1,.27-.66,6.06,2.53-.27.66Z"/><path class="cls-4" d="M101.87,140.19c-.77,1.86-2.63,2.13-4.32,1.42s-2.73-2.28-2-4.05,2.54-2.16,4.27-1.44,2.81,2.23,2,4.07m-5.68-2.36c-.6,1.42.41,2.54,1.66,3.06s2.8.47,3.39-1-.47-2.58-1.71-3.09-2.73-.48-3.34,1m-1.54-.77-.24.58-1.3-1.56.35-.85Z"/><path class="cls-4" d="M105.12,132l-3.61-1.5c-1-.43-2-.59-2.54.64s.4,2.27,1.56,2.76l3.24,1.35-.27.66L98.87,134a15,15,0,0,0-1.46-.54l.25-.59,1.08.4a2.29,2.29,0,0,1-.37-2.46c.65-1.57,1.92-1.57,3.32-1l3.71,1.55Z"/><polygon class="cls-4" points="100.96 123.15 107.65 125.94 106.9 127.75 100.2 124.97 99.14 127.52 97.7 126.92 100.58 120 102.02 120.6 100.96 123.15"/><path class="cls-4" d="M106.57,121.11a1.84,1.84,0,0,0,2.48-1.12,4.49,4.49,0,0,0,.36-2l1.16.4a7.45,7.45,0,0,1-.61,2.39c-.85,2-2.51,2.66-4.54,1.82a3.21,3.21,0,0,1-1.91-4.3c.82-2,2.52-2.18,4.38-1.4l.37.15Zm-2-2.41c-.39.93.42,1.73,1.14,2l1-2.52c-.77-.32-1.81-.44-2.19.49"/><path class="cls-4" d="M108.24,111.32a1.8,1.8,0,0,0-.3.49c-.48,1.14.45,2,1.4,2.37l2.74,1.13-.7,1.69-4.76-2c-.46-.18-.91-.36-1.38-.5l.66-1.58,1.2.45a2.14,2.14,0,0,1-.62-2.27,1.51,1.51,0,0,1,.27-.46Z"/><path class="cls-4" d="M110.2,106.63a1.5,1.5,0,0,0-.31.49c-.47,1.13.46,2,1.41,2.36l2.73,1.13-.7,1.69-4.76-2a12.56,12.56,0,0,0-1.38-.5l.66-1.59,1.2.46a2.15,2.15,0,0,1-.61-2.28,1.89,1.89,0,0,1,.26-.46Z"/><path class="cls-4" d="M116.68,104.26l-1-.36a2.51,2.51,0,0,1,.27,2.4,2,2,0,0,1-2.63,1.34c-1.62-.67-1.52-2.46-.8-4.18.09-.22.22-.5.32-.73l-.2-.08c-.85-.36-1.45,0-1.82.92a3.94,3.94,0,0,0-.28,2.05l-1.16-.39a7.58,7.58,0,0,1,.5-2.31c.68-1.65,1.76-2.59,3.56-1.84l2.42,1a12,12,0,0,0,1.47.53Zm-2.94-1.17-.09.22c-.36.86-.81,2.23.25,2.67a1,1,0,0,0,1.26-.66c.43-1-.21-1.72-1.11-2.1Z"/><g class="cls-5"><rect class="cls-6" x="64.89" y="134.47" width="31.65" height="8.37" transform="translate(-78.31 159.87) rotate(-67.4)"/></g><g class="cls-7"><rect class="cls-8" x="76.83" y="114.37" width="16.54" height="15.87" transform="translate(-6.89 5.09) rotate(-3.3)"/></g><g class="cls-9"><rect class="cls-10" x="65.86" y="119.43" width="29.21" height="25.53" transform="translate(-61.16 69.8) rotate(-34.9)"/></g><g class="cls-11"><rect class="cls-12" x="66.54" y="136.94" width="31.37" height="4.98" transform="translate(-78.1 161.75) rotate(-67.4)"/></g><g class="cls-13"><rect class="cls-14" x="68.3" y="126.42" width="25.83" height="12.17" transform="translate(-72.32 156.55) rotate(-67.4)"/></g><g class="cls-15"><rect class="cls-16" x="79.96" y="116.72" width="9.57" height="12.85" transform="translate(-61.51 154.05) rotate(-67.4)"/></g><path class="cls-2" d="M209.8,119.39l-69.28,57a18.47,18.47,0,0,1-26-2.52L43.32,87.33a18.47,18.47,0,0,1,2.52-26l69.29-57a18.46,18.46,0,0,1,26,2.53l71.21,86.55a18.45,18.45,0,0,1-2.53,26"/><path class="cls-3" d="M83,15.86h89.72a18.46,18.46,0,0,1,18.46,18.46V146.4a18.46,18.46,0,0,1-18.46,18.46H83A18.47,18.47,0,0,1,64.5,146.4V34.33A18.46,18.46,0,0,1,83,15.86Z" transform="translate(-28.3 101.8) rotate(-39.45)"/><polygon class="cls-4" points="100.12 121.74 102.17 124.23 104.6 122.24 105.04 122.77 102.61 124.77 105.27 128 104.66 128.5 99.06 121.69 102.21 119.1 102.67 119.65 100.12 121.74"/><path class="cls-4" d="M112.18,122.32l-.76-.86a2.27,2.27,0,0,1-.81,2.34c-1.32,1.08-2.43.47-3.4-.7l-2.55-3.1.55-.46,2.49,3c.7.86,1.51,1.49,2.54.65s.69-2.2-.1-3.17l-2.24-2.71.55-.46,3.19,3.87a12.67,12.67,0,0,0,1,1.16Z"/><path class="cls-4" d="M117.44,118,115,115c-.71-.86-1.52-1.47-2.55-.62s-.71,2.19.09,3.16l2.23,2.72-.55.45L111,116.8a14.45,14.45,0,0,0-1-1.16l.5-.41.76.86a2.3,2.3,0,0,1,.83-2.34c1.32-1.08,2.44-.5,3.4.68l2.56,3.1Z"/><path class="cls-4" d="M122.93,113.47l-.76-.79a2.18,2.18,0,0,1-.8,2.26c-1.5,1.23-3.17.32-4.24-1s-1.61-3.07-.08-4.33a2.18,2.18,0,0,1,2.32-.3l-2.58-3.14.55-.46,4.68,5.7c.45.54.93,1.08,1.42,1.62Zm-5.42-3.33c-1.22,1-.6,2.33.22,3.33s2.06,1.88,3.26.9.54-2.46-.23-3.4-2.14-1.75-3.25-.83"/><path class="cls-4" d="M127.78,109.48l-.71-.8a2.22,2.22,0,0,1-.8,2.23,1.87,1.87,0,0,1-2.82-.08c-1.07-1.3-.22-2.76,1.38-4.07l.34-.29-.22-.26c-.65-.8-1.35-1.1-2.21-.39a3.21,3.21,0,0,0-1.12,1.59l-.53-.53a5.09,5.09,0,0,1,1.2-1.56c1.23-1,2.27-.72,3.25.47l1.84,2.25a8.76,8.76,0,0,0,.94,1ZM125.57,107l-.13.11c-1,.8-2.37,2.07-1.4,3.26a1.23,1.23,0,0,0,1.84,0c1.14-.93.78-2.07,0-3.07Z"/><path class="cls-4" d="M132,106.23c-1.53,1.26-3.37.71-4.55-.72a3.11,3.11,0,0,1,.28-4.62,4.74,4.74,0,0,1,1.35-.76l.42.61a3.34,3.34,0,0,0-1.28.63A2.4,2.4,0,0,0,128,105a2.5,2.5,0,0,0,3.6.62,4.27,4.27,0,0,0,.94-1.14l.51.51a4.79,4.79,0,0,1-1.1,1.23"/><path class="cls-4" d="M128.43,97.08l.55-.45.67.81-.55.46Zm1.65,2,.55-.45,4.17,5.07-.55.45Z"/><path class="cls-4" d="M138.42,100.91c-1.55,1.28-3.32.65-4.49-.78s-1.34-3.29.14-4.51,3.26-.71,4.46.74,1.43,3.28-.11,4.55m-3.91-4.76c-1.2,1-.83,2.45,0,3.49s2.25,1.72,3.44.74.79-2.5-.06-3.53-2.19-1.7-3.41-.7m-1-1.4-.49.4-.42-2,.72-.59Z"/><path class="cls-4" d="M145.13,95.21l-2.49-3c-.7-.85-1.52-1.47-2.55-.62s-.71,2.19.09,3.16l2.23,2.72-.55.45L138.68,94c-.33-.39-.68-.79-1-1.16l.49-.41.77.86a2.29,2.29,0,0,1,.83-2.34c1.31-1.08,2.43-.49,3.39.68l2.56,3.1Z"/><polygon class="cls-4" points="145.6 85.42 150.21 91.02 148.69 92.28 144.08 86.67 141.95 88.43 140.96 87.22 146.74 82.46 147.73 83.67 145.6 85.42"/><path class="cls-4" d="M151.52,86.25a1.84,1.84,0,0,0,2.71.18,4.58,4.58,0,0,0,1.26-1.61l.84.89a7.41,7.41,0,0,1-1.66,1.83,3.13,3.13,0,0,1-4.86-.52,3.21,3.21,0,0,1,.32-4.7c1.64-1.35,3.25-.73,4.52.82l.27.31Zm-.68-3.09a1.67,1.67,0,0,0,.06,2.34L153,83.76c-.53-.64-1.4-1.24-2.17-.6"/><path class="cls-4" d="M157.58,78.39a1.64,1.64,0,0,0-.5.29c-1,.78-.52,1.95.13,2.75l1.88,2.28-1.4,1.16-3.28-4a12.69,12.69,0,0,0-1-1.09l1.33-1.09.84,1a1.92,1.92,0,0,1,1-2.58Z"/><path class="cls-4" d="M161.5,75.16a1.51,1.51,0,0,0-.49.29c-.95.78-.52,2,.13,2.74L163,80.48l-1.4,1.16-3.28-4a12.69,12.69,0,0,0-1-1.09l1.32-1.09.85,1a2.15,2.15,0,0,1,.52-2.3,2.11,2.11,0,0,1,.45-.28Z"/><path class="cls-4" d="M168.34,76.1l-.69-.77a2.55,2.55,0,0,1-.88,2.26,2,2,0,0,1-3-.06c-1.12-1.36-.19-2.89,1.25-4.07l.63-.49-.15-.17c-.58-.71-1.29-.65-2,0a4,4,0,0,0-1.22,1.69l-.84-.9A7.82,7.82,0,0,1,163,71.74c1.38-1.13,2.77-1.45,4,.05l1.67,2a12.18,12.18,0,0,0,1,1.16Zm-2.05-2.4-.18.15c-.72.59-1.76,1.58-1,2.47a1,1,0,0,0,1.42,0c.86-.71.62-1.62,0-2.38Z"/><g class="cls-17"><rect class="cls-18" x="104.63" y="85.45" width="31.65" height="8.37" transform="translate(-29.51 96.95) rotate(-39.45)"/></g><g class="cls-19"><rect class="cls-20" x="124.05" y="68.97" width="15.87" height="16.54" transform="translate(6.74 164.98) rotate(-65.35)"/></g><g class="cls-21"><rect class="cls-22" x="108.65" y="71.04" width="29.21" height="25.53" transform="translate(-9.23 15.53) rotate(-6.95)"/></g><g class="cls-23"><rect class="cls-24" x="105.74" y="88.54" width="31.37" height="4.98" transform="translate(-30.18 97.89) rotate(-39.45)"/></g><g class="cls-25"><rect class="cls-26" x="110.86" y="78.35" width="25.83" height="12.17" transform="translate(-25.45 97.88) rotate(-39.45)"/></g><g class="cls-27"><rect class="cls-28" x="126.5" y="71.39" width="9.57" height="12.85" transform="translate(-19.54 101.14) rotate(-39.45)"/></g><path class="cls-29" d="M298.32,183.06a89.27,89.27,0,1,1-89.27-89.27,89.27,89.27,0,0,1,89.27,89.27"/></g></g></svg>