<svg xmlns="http://www.w3.org/2000/svg" viewBox="0 0 383.71 117.4"><defs><style>.cls-1{fill:#ea5b27;}.cls-2{fill:#fff;}</style></defs><title>Recurso 26</title><g id="Capa_2" data-name="Capa 2"><g id="Capa_1-2" data-name="Capa 1"><path class="cls-1" d="M326.9,117.4H56.82A56.81,56.81,0,0,1,0,60.59V56.81A56.81,56.81,0,0,1,56.82,0H326.9a56.81,56.81,0,0,1,56.81,56.81v3.78A56.8,56.8,0,0,1,326.9,117.4"/><path class="cls-2" d="M110.74,67.28q0,6.63-3.56,10.38T97,81.4a26.4,26.4,0,0,1-7.77-1.13l.35-7.7a6.36,6.36,0,0,0,2,.64,14.2,14.2,0,0,0,2,.14q3.6,0,5.19-2.19a9,9,0,0,0,1.59-5.44V33.52h10.45Z"/><path class="cls-2" d="M157.07,62.9a19.76,19.76,0,0,1-1.51,8,16,16,0,0,1-4.24,5.79,18.75,18.75,0,0,1-6.39,3.53,25.57,25.57,0,0,1-8,1.2A26.75,26.75,0,0,1,129,80.27a17.46,17.46,0,0,1-6.25-3.35,15.36,15.36,0,0,1-4.1-5.65,19.85,19.85,0,0,1-1.48-7.95V33.52h10.45V63a16.47,16.47,0,0,0,.53,4.24,9.57,9.57,0,0,0,1.66,3.42,7.91,7.91,0,0,0,2.93,2.3,10.06,10.06,0,0,0,4.28.84,10.57,10.57,0,0,0,4.3-.81,7.8,7.8,0,0,0,3-2.26,9.68,9.68,0,0,0,1.73-3.42,15.63,15.63,0,0,0,.56-4.24V33.52h10.45Z"/><path class="cls-2" d="M204.18,78.58a45.47,45.47,0,0,1-8.26,2.15,53,53,0,0,1-8.48.67,31.87,31.87,0,0,1-10.38-1.62,23.51,23.51,0,0,1-8.16-4.7,21,21,0,0,1-5.33-7.63,26.55,26.55,0,0,1-1.91-10.34,24.54,24.54,0,0,1,2-10.14,22.55,22.55,0,0,1,5.51-7.63,24.6,24.6,0,0,1,8.22-4.83,30,30,0,0,1,10.17-1.7,54.33,54.33,0,0,1,7.42.53,44.06,44.06,0,0,1,7.2,1.59l-.42,7.91a23,23,0,0,0-5.9-2,32.2,32.2,0,0,0-6.18-.6,20.54,20.54,0,0,0-7.06,1.16,14.89,14.89,0,0,0-5.4,3.36,14.62,14.62,0,0,0-3.43,5.33,19.6,19.6,0,0,0-1.2,7,23,23,0,0,0,.92,6.6,15.69,15.69,0,0,0,2.75,5.37,12.8,12.8,0,0,0,4.63,3.6,15.45,15.45,0,0,0,6.6,1.31,28.07,28.07,0,0,0,3.71-.25,16.18,16.18,0,0,0,3.64-.95V62.69h-6.22V55.84h15.54Z"/><path class="cls-2" d="M243.94,80.63l-4.16-11.8H219.72l-4.24,11.8H205.17l17.94-47.11h13.7l18,47.11ZM229.82,40.09l-8,21.54h15.75Z"/><path class="cls-2" d="M283.85,80.63,279,67.14c-.42-1.13-.82-2.09-1.2-2.86a5.47,5.47,0,0,0-1.41-1.88,4.79,4.79,0,0,0-2.08-1,14.37,14.37,0,0,0-3.15-.29h-3.81v19.5H257.08V33.52h19.21a27.42,27.42,0,0,1,5.9.63,15.77,15.77,0,0,1,5.12,2.09A11,11,0,0,1,291,40.09,11.82,11.82,0,0,1,292.32,46a10.93,10.93,0,0,1-.85,4.38,10,10,0,0,1-2.33,3.39,12.59,12.59,0,0,1-3.46,2.33,17.85,17.85,0,0,1-4.23,1.34,8.66,8.66,0,0,1,4.76,2.33,14,14,0,0,1,2.72,4.66L295,80.63ZM281.8,47.08a6.48,6.48,0,0,0-.78-3.36,5.35,5.35,0,0,0-2.08-2,8.9,8.9,0,0,0-3-1,24.88,24.88,0,0,0-3.64-.25h-5V54.14H272a19.92,19.92,0,0,0,3.57-.32,9.8,9.8,0,0,0,3.14-1.13,5.95,5.95,0,0,0,3.11-5.61Z"/></g></g></svg>