<svg xmlns="http://www.w3.org/2000/svg" xmlns:xlink="http://www.w3.org/1999/xlink" viewBox="0 0 320.54 157.75"><defs><style>.cls-1{fill:#fff;}.cls-2{clip-path:url(#clip-path);}.cls-3{clip-path:url(#clip-path-2);}.cls-4{clip-path:url(#clip-path-3);}.cls-5{clip-path:url(#clip-path-4);}.cls-6{clip-path:url(#clip-path-5);}.cls-7{clip-path:url(#clip-path-6);}</style><clipPath id="clip-path"><path class="cls-1" d="M100.33,71C88.42,78.85,81.87,89.2,80.17,97.09c24.64-19.1,80.36-15.92,120.42,0,0,0-42.4-31.86-77.73-31.86-8.09,0-15.78,1.68-22.53,5.78"/></clipPath><clipPath id="clip-path-2"><path class="cls-1" d="M217.79,97.09s8.14-9.55,3.62-21.21c-3.57-9.14-16.56-23.42-38.85-27.69,0,0,32.34,14,35.23,48.9"/></clipPath><clipPath id="clip-path-3"><path class="cls-1" d="M113.57,57.12c29.21-6.35,66.88,13.87,98.31,40,0,0-12.6-43.8-54.07-52a31.87,31.87,0,0,0-5.94-.52c-16.34,0-36.36,10.66-38.3,12.57"/></clipPath><clipPath id="clip-path-4"><path class="cls-1" d="M80.17,97.09c24.43-18.94,79.42-16,119.38-.4-6.9-4-34.75-17.85-67.84-18.52l-2.23,0c-36.73,0-49.31,19-49.31,19"/></clipPath><clipPath id="clip-path-5"><path class="cls-1" d="M113.57,57.12c29.21-6.35,66.88,13.87,98.31,40,0,0-22.39-26.76-48.18-37.73a73,73,0,0,0-28.54-5.9c-13.08,0-21.59,3.66-21.59,3.66"/></clipPath><clipPath id="clip-path-6"><path class="cls-1" d="M182.56,48.19s32.34,14,35.23,48.9l0,0a44.45,44.45,0,0,0-2.75-21.87c-5.37-12.84-21.17-23.73-32.42-27Z"/></clipPath></defs><title>Recurso 2</title><g id="Capa_2" data-name="Capa 2"><g id="Capa_1-2" data-name="Capa 1"><polygon class="cls-1" points="3.02 126.37 3.02 138.64 14.98 138.64 14.98 141.26 3.02 141.26 3.02 157.19 0 157.19 0 123.65 15.54 123.65 15.54 126.37 3.02 126.37"/><path class="cls-1" d="M37.05,157.19l-.15-4.33c-1.8,3.17-4.32,4.89-8,4.89-6.48,0-8.29-4.49-8.29-10.26v-15.3h2.72v14.89c0,4.23.86,8,5.93,8,5.58,0,7.34-4.78,7.34-9.56V132.19h2.72v19.06a59,59,0,0,0,.25,5.94Z"/><path class="cls-1" d="M63,157.19V142.3c0-4.22-.91-8-6-8-5.58,0-7.4,4.73-7.4,9.51v13.37H46.91V138.13a59,59,0,0,0-.25-5.94h2.46l.15,4.39a8.73,8.73,0,0,1,8.09-4.88c6.49,0,8.36,4.42,8.36,10.2v15.29Z"/><path class="cls-1" d="M90.05,157.19,89.7,153a8.26,8.26,0,0,1-7.8,4.73c-7.39,0-10.11-6.74-10.11-13.13,0-6.64,2.72-12.92,10.27-12.92a8.27,8.27,0,0,1,7.54,4.73V120.94h2.71V149c0,2.67.11,5.43.25,8.2Zm-7.89-22.88c-6,0-7.4,5.38-7.4,10.31s1.51,10.51,7.4,10.51c5.58,0,7.54-5.88,7.54-10.51s-2.06-10.31-7.54-10.31"/><path class="cls-1" d="M113.94,157.19l-.16-4.07a8.45,8.45,0,0,1-7.74,4.63c-4.43,0-8.1-2.27-8.1-7.05,0-6.39,6-8.64,13.88-8.64h1.71v-1.31c0-3.93-1.31-6.49-5.58-6.49a12.23,12.23,0,0,0-7.1,2l-.29-2.82a19.38,19.38,0,0,1,7.29-1.7c6.09,0,8.4,3.37,8.4,9.24V152a36.53,36.53,0,0,0,.34,5.18Zm-.41-12.72h-.65c-4.78,0-12,.35-12,6.18,0,3.07,2.47,4.53,5.34,4.53,5.63,0,7.29-4.22,7.29-9.15Z"/><path class="cls-1" d="M134.05,157.75c-7.54,0-11.62-6.09-11.62-13.14,0-7.23,4.43-12.91,12-12.91a17.92,17.92,0,0,1,5.83,1.05l-.26,2.81a12.72,12.72,0,0,0-5.27-1.26c-6.24,0-9.31,4.49-9.31,10.31,0,5.43,3.13,10.52,9.06,10.52A15.93,15.93,0,0,0,140,154l.26,2.76a18.33,18.33,0,0,1-6.18,1"/><path class="cls-1" d="M145.82,122.34h2.72v4h-2.72Zm0,9.85h2.72v25h-2.72Z"/><path class="cls-1" d="M165.92,157.75c-7.64,0-11.32-6.13-11.32-13.14s4-12.91,11.32-12.91c7.74,0,11.32,5.78,11.32,12.91s-3.73,13.14-11.32,13.14m0-23.44c-5.89,0-8.34,5.18-8.34,10.3s2.45,10.52,8.34,10.52,8.35-5.43,8.35-10.52c0-5.26-2.31-10.3-8.35-10.3m.46-6.53H164l3.57-6.84H171Z"/><path class="cls-1" d="M199.41,157.19V142.3c0-4.22-.9-8-6-8-5.58,0-7.39,4.73-7.39,9.51v13.37h-2.71V138.13c0-2-.06-4-.25-5.94h2.46l.15,4.39a8.73,8.73,0,0,1,8.1-4.88c6.48,0,8.34,4.42,8.34,10.2v15.29Z"/><polygon class="cls-1" points="224.45 129.59 224.45 157.19 216.96 157.19 216.96 129.59 206.46 129.59 206.46 123.65 234.97 123.65 234.97 129.59 224.45 129.59"/><path class="cls-1" d="M239.84,146.33c0,4.37,3.27,7.09,7.54,7.09a17.18,17.18,0,0,0,7.59-1.71l.31,4.68a28.89,28.89,0,0,1-9.31,1.36c-8.44,0-13-4.94-13-13.28,0-7.49,5-13,12.32-13,8.09,0,11.31,5.69,11.31,13.33v1.56Zm5.48-10.71c-3.87,0-5.48,4-5.48,7h10.4c0-3.17-1.1-7-4.92-7"/><path class="cls-1" d="M276.64,137.89a6.28,6.28,0,0,0-2.16-.36c-4.68,0-6.24,4.48-6.24,8.39v11.27h-6.93V137.58a49.62,49.62,0,0,0-.26-5.58h6.54l.15,4.87c1.16-2.76,3.68-5.48,7.1-5.48a6.42,6.42,0,0,1,2,.26Z"/><path class="cls-1" d="M296,137.89a6.28,6.28,0,0,0-2.16-.36c-4.68,0-6.23,4.48-6.23,8.39v11.27h-6.95V137.58a52.09,52.09,0,0,0-.25-5.58H287l.15,4.87c1.16-2.76,3.67-5.48,7.09-5.48a6.42,6.42,0,0,1,2,.26Z"/><path class="cls-1" d="M313.8,157.2l-.15-3.93a9.7,9.7,0,0,1-8,4.48c-4.62,0-8.54-2.27-8.54-7.29,0-6.7,6.43-9,13.53-9,.9,0,2.06.05,3,.09v-.85c0-3.52-2.21-5-5.88-5a15,15,0,0,0-7.65,2l-.3-4.67a29.49,29.49,0,0,1,8.85-1.62c6.79,0,11.67,2.42,11.67,9.81v10a49.5,49.5,0,0,0,.25,5.94Zm-.2-12h-.9c-3.52,0-9,.41-9,4.78,0,2.47,2.06,3.46,4.17,3.46,4.22,0,5.73-3.26,5.73-7Z"/><path class="cls-1" d="M100.33,71C88.42,78.85,81.87,89.2,80.17,97.09c24.64-19.1,80.36-15.92,120.42,0,0,0-42.4-31.86-77.73-31.86-8.09,0-15.78,1.68-22.53,5.78"/><g class="cls-2"><rect class="cls-1" x="80.17" y="65.23" width="120.42" height="31.86"/></g><path class="cls-1" d="M217.79,97.09s8.14-9.55,3.62-21.21c-3.57-9.14-16.56-23.42-38.85-27.69,0,0,32.34,14,35.23,48.9"/><g class="cls-3"><rect class="cls-1" x="174.05" y="41.17" width="60.38" height="62.93" transform="translate(-11.21 96.51) rotate(-25.9)"/></g><path class="cls-1" d="M113.57,57.12c29.21-6.35,66.88,13.87,98.31,40,0,0-12.6-43.8-54.07-52a31.87,31.87,0,0,0-5.94-.52c-16.34,0-36.36,10.66-38.3,12.57"/><g class="cls-4"><rect class="cls-1" x="114.16" y="15.25" width="97.13" height="111.14" transform="translate(15.57 170.01) rotate(-57.5)"/></g><path class="cls-1" d="M80.17,97.09c24.43-18.94,79.42-16,119.38-.4-6.9-4-34.75-17.85-67.84-18.52l-2.23,0c-36.73,0-49.31,19-49.31,19"/><g class="cls-5"><rect class="cls-1" x="80.17" y="78.14" width="119.37" height="18.95"/></g><path class="cls-1" d="M113.57,57.12c29.21-6.35,66.88,13.87,98.31,40,0,0-22.39-26.76-48.18-37.73a73,73,0,0,0-28.54-5.9c-13.08,0-21.59,3.66-21.59,3.66"/><g class="cls-6"><rect class="cls-1" x="113.57" y="50.77" width="98.3" height="46.32"/></g><path class="cls-1" d="M182.56,48.19s32.34,14,35.23,48.9l0,0a44.45,44.45,0,0,0-2.75-21.87c-5.37-12.84-21.17-23.73-32.42-27Z"/><g class="cls-7"><rect class="cls-1" x="182.55" y="48.19" width="36.43" height="48.9"/></g></g></g></svg>