<svg xmlns="http://www.w3.org/2000/svg" viewBox="0 0 303.53 92.87"><defs><style>.cls-1{fill:#ea5b27;}.cls-2{fill:#fff;}</style></defs><title>Recurso 27</title><g id="Capa_2" data-name="Capa 2"><g id="Capa_1-2" data-name="Capa 1"><path class="cls-1" d="M258.59,92.87H44.94A44.93,44.93,0,0,1,0,47.93v-3A44.94,44.94,0,0,1,44.94,0H258.59a44.94,44.94,0,0,1,44.94,44.94v3a44.93,44.93,0,0,1-44.94,44.94"/><path class="cls-2" d="M77,61.47H69.1L57.77,30.52h7.29l8.21,24.32,8.36-24.32h7Z"/><path class="cls-2" d="M90.07,61.47V30.52h20.19v4.73H96.8v8.08h12.86v4.73H96.8v8.68h13.88v4.73Z"/><path class="cls-2" d="M131.7,61.47l-3.2-8.86c-.28-.74-.54-1.37-.79-1.88a3.7,3.7,0,0,0-.93-1.23,3.12,3.12,0,0,0-1.37-.65,9.69,9.69,0,0,0-2.06-.19h-2.51V61.47h-6.73V30.52h12.63a18.28,18.28,0,0,1,3.87.41A10.43,10.43,0,0,1,134,32.3a7.34,7.34,0,0,1,2.39,2.53,7.79,7.79,0,0,1,.9,3.9,7.12,7.12,0,0,1-.56,2.88,6.62,6.62,0,0,1-1.53,2.23,8.23,8.23,0,0,1-2.27,1.53,12.19,12.19,0,0,1-2.78.88,5.74,5.74,0,0,1,3.13,1.53A9.32,9.32,0,0,1,135,50.84l4,10.63Zm-1.34-22a4.3,4.3,0,0,0-.51-2.21,3.54,3.54,0,0,0-1.37-1.32,6,6,0,0,0-2-.63,18.2,18.2,0,0,0-2.39-.16H120.8v9h3.11a12.89,12.89,0,0,0,2.34-.21,6.62,6.62,0,0,0,2.07-.74,4.28,4.28,0,0,0,1.48-1.42A4.19,4.19,0,0,0,130.36,39.43Z"/><path class="cls-2" d="M183.68,61.47l-.05-26.54-9.09,26.54h-6l-9.09-26.54V61.47h-6.08V30.52h10.26l8.12,23.53,8-23.53H190v31Z"/><path class="cls-2" d="M216.86,61.47l-2.73-7.75H201l-2.79,7.75h-6.78l11.79-30.95h9l11.83,31Zm-9.28-26.64L202.34,49h10.35Zm2.18-7h-4.59l3.34-6.31H215Z"/><path class="cls-2" d="M246,52.56a8.24,8.24,0,0,1-1.07,4.34,8.79,8.79,0,0,1-2.8,2.92,12.14,12.14,0,0,1-4,1.65,19.79,19.79,0,0,1-4.48.51,38.42,38.42,0,0,1-4.8-.3,26.63,26.63,0,0,1-4.71-1l.23-5.29a14.51,14.51,0,0,0,4.22,1.5,25.34,25.34,0,0,0,4.46.4A11.16,11.16,0,0,0,235.2,57a5.77,5.77,0,0,0,1.9-.72A4.35,4.35,0,0,0,238.47,55a3.73,3.73,0,0,0,.53-2.06,2.51,2.51,0,0,0-.56-1.59,6.13,6.13,0,0,0-1.37-1.25,10.46,10.46,0,0,0-1.78-1c-.65-.27-1.25-.54-1.81-.79l-3.16-1.39a19.6,19.6,0,0,1-2.53-1.35,10,10,0,0,1-2-1.67,7,7,0,0,1-1.35-2.16,7.75,7.75,0,0,1-.48-2.82,7.36,7.36,0,0,1,1.16-4.23,8.64,8.64,0,0,1,3-2.74,14,14,0,0,1,4.06-1.47,22.78,22.78,0,0,1,4.36-.44,34,34,0,0,1,3.93.23,30,30,0,0,1,3.87.75l-.23,5.1a16,16,0,0,0-3.5-1,22.16,22.16,0,0,0-3.65-.32,13.31,13.31,0,0,0-2,.16,7.27,7.27,0,0,0-2,.58,4.05,4.05,0,0,0-1.51,1.16,2.92,2.92,0,0,0-.6,1.9,2.32,2.32,0,0,0,.46,1.42,4.91,4.91,0,0,0,1.16,1.11,9.41,9.41,0,0,0,1.53.88c.56.27,1.08.49,1.58.68l3.34,1.3a23.2,23.2,0,0,1,2.83,1.32A8.9,8.9,0,0,1,243.94,47a7.44,7.44,0,0,1,1.49,2.37A8.62,8.62,0,0,1,246,52.56Z"/></g></g></svg>